<svg width="462" height="278" viewBox="0 0 462 278" fill="none" xmlns="http://www.w3.org/2000/svg">
<g clip-path="url(#clip0_1_2026)">
<rect width="462" height="278" rx="12" fill="url(#paint0_linear_1_2026)"/>
<path d="M30.1076 44.6756C26.1573 44.6756 23.7692 42.466 23.5014 39.1629L26.4474 38.9844C26.7375 41.0377 27.9427 42.1759 30.1523 42.1759C32.0047 42.1759 33.0983 41.484 33.0983 40.1226C33.0983 38.8951 32.4734 38.1586 29.2372 37.3998C25.3092 36.507 23.8361 35.3911 23.8361 32.8021C23.8361 30.0347 25.9787 28.1153 29.5497 28.1153C33.3215 28.1153 35.4194 30.3248 35.7542 33.3824L32.8305 33.5163C32.6296 31.7978 31.4914 30.6149 29.505 30.6149C27.8088 30.6149 26.7822 31.463 26.7822 32.6906C26.7822 33.985 27.541 34.476 30.3531 35.1233C34.616 36.0383 36.0443 37.6006 36.0443 39.9664C36.0443 42.8678 33.6786 44.6756 30.1076 44.6756ZM42.7169 44.5863C40.2842 44.5863 38.7888 42.9124 38.7888 40.078V32.4004H41.6456V39.3638C41.6456 41.3724 42.2928 42.2652 43.6766 42.2652C45.2165 42.2652 46.1093 41.2162 46.1093 39.2522V32.4004H48.966V44.3185H46.3548L46.3101 42.3321C45.7075 43.8275 44.48 44.5863 42.7169 44.5863ZM52.1058 47.6663V32.4004H54.851L54.8956 34.1636C55.5875 32.8468 56.9043 32.1326 58.4666 32.1326C61.859 32.1326 63.5329 34.9224 63.5329 38.3594C63.5329 41.7965 61.8367 44.5863 58.4442 44.5863C56.9266 44.5863 55.6098 43.8498 54.9626 42.6892V47.6663H52.1058ZM57.7747 42.2652C59.5155 42.2652 60.5645 40.8145 60.5645 38.3594C60.5645 35.9044 59.5155 34.4537 57.7747 34.4537C56.0338 34.4537 54.9626 35.7705 54.9626 38.3594C54.9626 40.9484 56.0115 42.2652 57.7747 42.2652ZM71.0589 44.5863C67.4879 44.5863 65.2114 42.1313 65.2114 38.3594C65.2114 34.6099 67.4879 32.1326 70.9919 32.1326C74.4067 32.1326 76.6608 34.4984 76.6608 38.5157V39.1629H68.1798C68.2914 41.2609 69.385 42.3098 71.0812 42.3098C72.3534 42.3098 73.2238 41.7072 73.5586 40.6583L76.4823 40.8368C75.835 43.1579 73.8041 44.5863 71.0589 44.5863ZM73.6925 37.2435C73.5586 35.3018 72.5096 34.3868 70.9919 34.3868C69.452 34.3868 68.403 35.3911 68.1798 37.2435H73.6925ZM78.9577 44.3185V32.4004H81.6359L81.7029 34.6992C82.1716 33.0923 83.1089 32.4004 84.5596 32.4004H85.6532V34.8554H84.5373C82.7072 34.8554 81.8145 35.6143 81.8145 37.4444V44.3185H78.9577ZM88.0516 44.3185V28.4724H91.9573L96.3318 40.7475L100.706 28.4724H104.612V44.3185H101.711V33.3824L97.7155 44.2962H94.948L90.953 33.3824V44.3185H88.0516ZM113.102 44.5863C109.531 44.5863 107.255 42.1313 107.255 38.3594C107.255 34.6099 109.531 32.1326 113.035 32.1326C116.45 32.1326 118.704 34.4984 118.704 38.5157V39.1629H110.223C110.335 41.2609 111.428 42.3098 113.124 42.3098C114.397 42.3098 115.267 41.7072 115.602 40.6583L118.526 40.8368C117.878 43.1579 115.847 44.5863 113.102 44.5863ZM115.736 37.2435C115.602 35.3018 114.553 34.3868 113.035 34.3868C111.495 34.3868 110.446 35.3911 110.223 37.2435H115.736ZM125.341 44.3185C122.975 44.3185 121.882 43.2695 121.882 40.9038V34.6099H120.007V32.4004H121.882V29.6106H124.739V32.4004H127.886V34.6099H124.739V40.6359C124.739 41.7519 125.207 42.109 126.212 42.109H127.886V44.3185H125.341ZM130.242 44.3185V32.4004H132.92L132.987 34.6992C133.456 33.0923 134.393 32.4004 135.844 32.4004H136.938V34.8554H135.822C133.992 34.8554 133.099 35.6143 133.099 37.4444V44.3185H130.242ZM139.113 44.3185V32.4004H141.97V44.3185H139.113ZM139.068 30.8158V28.2715H142.037V30.8158H139.068ZM150.264 44.5863C146.715 44.5863 144.394 42.1313 144.394 38.3594C144.394 34.6099 146.715 32.1326 150.264 32.1326C153.299 32.1326 155.464 33.7842 155.821 36.6186L152.875 36.7748C152.652 35.2572 151.648 34.4537 150.264 34.4537C148.411 34.4537 147.362 35.9044 147.362 38.3594C147.362 40.8368 148.411 42.2652 150.264 42.2652C151.648 42.2652 152.652 41.4617 152.875 39.7878L155.821 39.9217C155.486 42.7785 153.344 44.5863 150.264 44.5863ZM162.854 44.5863C159.328 44.5863 157.475 42.9124 157.297 40.569L160.221 40.4351C160.422 41.6849 161.203 42.3991 162.854 42.3991C164.193 42.3991 164.997 41.9974 164.997 41.06C164.997 40.2565 164.595 39.8994 162.386 39.52C158.725 38.8951 157.587 37.9131 157.587 35.8821C157.587 33.6726 159.328 32.1326 162.631 32.1326C165.845 32.1326 167.496 33.8511 167.831 36.1499L164.93 36.2838C164.729 35.0786 163.926 34.3198 162.609 34.3198C161.247 34.3198 160.555 34.9224 160.555 35.7928C160.555 36.7525 161.18 37.1319 162.988 37.4221C166.738 38.0024 167.965 39.029 167.965 41.0153C167.965 43.3142 165.89 44.5863 162.854 44.5863ZM169.786 44.3185V41.1939H173.067V44.3185H169.786ZM180.756 44.5863C177.207 44.5863 174.886 42.1313 174.886 38.3594C174.886 34.6099 177.207 32.1326 180.756 32.1326C183.791 32.1326 185.956 33.7842 186.313 36.6186L183.367 36.7748C183.144 35.2572 182.139 34.4537 180.756 34.4537C178.903 34.4537 177.854 35.9044 177.854 38.3594C177.854 40.8368 178.903 42.2652 180.756 42.2652C182.139 42.2652 183.144 41.4617 183.367 39.7878L186.313 39.9217C185.978 42.7785 183.836 44.5863 180.756 44.5863ZM193.658 44.5863C190.11 44.5863 187.789 42.1313 187.789 38.3594C187.789 34.5876 190.11 32.1326 193.658 32.1326C197.185 32.1326 199.506 34.5876 199.506 38.3594C199.506 42.1313 197.185 44.5863 193.658 44.5863ZM193.658 42.2652C195.489 42.2652 196.56 40.8368 196.56 38.3594C196.56 35.9044 195.489 34.4537 193.658 34.4537C191.806 34.4537 190.757 35.9044 190.757 38.3594C190.757 40.8368 191.806 42.2652 193.658 42.2652ZM201.818 44.3185V32.4004H204.407L204.474 34.4091C205.054 32.9584 206.26 32.1326 207.755 32.1326C209.496 32.1326 210.701 33.0477 211.214 34.5876C211.75 33.003 212.978 32.1326 214.629 32.1326C217.084 32.1326 218.602 33.7172 218.602 36.6632V44.3185H215.745V37.3998C215.745 35.4357 215.098 34.4537 213.714 34.4537C212.353 34.4537 211.527 35.5696 211.527 37.489V44.3185H208.871V37.489C208.871 35.5473 208.335 34.4537 206.885 34.4537C205.523 34.4537 204.675 35.592 204.675 37.489V44.3185H201.818Z" fill="#212F40"/>
<path d="M31.0673 88.3185V85.1493H23.1442V82.7835L30.5986 72.4724H33.9687V82.6273H35.8658V85.1493H33.9687V88.3185H31.0673ZM26.3135 82.6273H31.0673V76.2442L26.3135 82.6273ZM37.1608 88.3185V85.1939H40.4416V88.3185H37.1608ZM47.9744 88.6756C45.1177 88.6756 43.3768 87.2695 42.6849 84.9261L45.5194 84.7475C45.8542 85.6626 46.6576 86.1759 47.9744 86.1759C50.117 86.1759 51.2776 84.7698 51.4784 81.3998C50.6526 82.5826 49.3805 83.2076 47.7066 83.2076C44.582 83.2076 42.4171 81.0427 42.4171 77.8065C42.4171 74.3248 44.7829 72.1153 48.2199 72.1153C52.4381 72.1153 54.4021 74.9274 54.4021 79.7259C54.4021 85.1716 52.5274 88.6756 47.9744 88.6756ZM48.2422 80.9311C50.0724 80.9311 51.2999 79.7705 51.2999 77.8065C51.2999 75.8648 50.184 74.548 48.3092 74.548C46.4791 74.548 45.3632 75.8425 45.3632 77.7842C45.3632 79.7259 46.5237 80.9311 48.2422 80.9311Z" fill="#212F40"/>
<path fill-rule="evenodd" clip-rule="evenodd" d="M72.1828 71.123C72.6515 69.9963 74.2501 69.9963 74.7188 71.123L76.8969 76.3602L82.5505 76.8142C83.7682 76.9115 84.262 78.4306 83.3341 79.2257L79.0269 82.9155L80.342 88.432C80.6255 89.6205 79.3335 90.5589 78.2915 89.9228L73.4508 86.9663L68.6101 89.9228C67.5682 90.5589 66.2761 89.6194 66.5596 88.432L67.8747 82.9155L63.5676 79.2257C62.6396 78.4306 63.1334 76.9115 64.3512 76.8142L70.0047 76.3602L72.1828 71.123Z" fill="#F6B51E"/>
<path d="M94.4093 87.0063C93.013 84.8735 92.2918 82.6486 92.2918 80.4084C92.2918 78.1682 93.013 75.9433 94.4093 73.8105H95.8516C94.5934 76.0047 93.9336 78.2142 93.9336 80.4084C93.9336 82.6026 94.5934 84.7968 95.8516 87.0063H94.4093ZM97.1507 85.3185C97.1507 82.8481 98.102 81.3291 101.217 79.6719C102.721 78.8894 103.288 78.429 103.288 77.4163C103.288 76.4036 102.613 75.6978 101.324 75.6978C99.928 75.6978 99.1147 76.465 98.9153 77.8613L97.1967 77.7539C97.4269 75.5597 98.8846 74.1788 101.309 74.1788C103.641 74.1788 105.007 75.483 105.007 77.3857C105.007 79.0581 104.255 79.856 102.061 81.0222C100.173 82.0349 99.2221 83.0629 99.1608 83.7994H105.007V85.3185H97.1507ZM106.346 85.3185V83.3851H108.341V85.3185H106.346ZM113.463 85.564C111.591 85.564 110.409 84.582 109.964 83.0936L111.652 82.9862C111.882 83.6767 112.481 84.0603 113.463 84.0603C115.043 84.0603 115.933 83.0015 116.086 80.4851C115.503 81.3597 114.583 81.8201 113.432 81.8201C111.299 81.8201 109.811 80.3164 109.811 78.0761C109.811 75.6825 111.422 74.1788 113.708 74.1788C116.516 74.1788 117.79 76.1428 117.79 79.319C117.79 83.0169 116.623 85.564 113.463 85.564ZM113.662 80.3931C115.043 80.3931 115.994 79.5492 115.994 78.0761C115.994 76.6645 115.135 75.6518 113.723 75.6518C112.358 75.6518 111.514 76.6338 111.514 78.0608C111.514 79.4878 112.388 80.3931 113.662 80.3931ZM119.559 85.3185V74.4243H121.185V81.191L124.852 77.1555H126.908L123.717 80.5925L127.031 85.3185H125.159L122.628 81.6052L121.185 83.1396V85.3185H119.559ZM129.63 87.0063H128.172C129.446 84.7968 130.09 82.6026 130.09 80.4084C130.09 78.2142 129.446 76.0047 128.172 73.8105H129.63C131.026 75.9433 131.748 78.1682 131.748 80.4084C131.748 82.6486 131.026 84.8735 129.63 87.0063Z" fill="#697586"/>
<path d="M142.628 85.3185V83.7994H145.052V77.5544H142.628V76.2195H143.671C144.929 76.2195 145.39 75.7899 145.39 74.4243H146.709V83.7994H148.996V85.3185H142.628ZM155.046 85.564C152.468 85.564 150.934 83.3851 150.934 79.8867C150.934 76.3883 152.483 74.1788 155.046 74.1788C157.624 74.1788 159.158 76.373 159.158 79.8867C159.158 83.3698 157.624 85.564 155.046 85.564ZM155.046 84.0449C156.642 84.0449 157.439 82.5719 157.439 79.8867C157.439 77.1862 156.642 75.6978 155.046 75.6978C153.465 75.6978 152.652 77.1862 152.652 79.8867C152.652 82.5719 153.465 84.0449 155.046 84.0449ZM160.513 87.7275L161.28 85.3185H160.421V83.3851H162.416V85.0883L161.449 87.7275H160.513ZM167.783 85.564C165.205 85.564 163.67 83.3851 163.67 79.8867C163.67 76.3883 165.22 74.1788 167.783 74.1788C170.36 74.1788 171.895 76.373 171.895 79.8867C171.895 83.3698 170.36 85.564 167.783 85.564ZM167.783 84.0449C169.378 84.0449 170.176 82.5719 170.176 79.8867C170.176 77.1862 169.378 75.6978 167.783 75.6978C166.202 75.6978 165.389 77.1862 165.389 79.8867C165.389 82.5719 166.202 84.0449 167.783 84.0449ZM177.178 85.564C174.6 85.564 173.066 83.3851 173.066 79.8867C173.066 76.3883 174.615 74.1788 177.178 74.1788C179.755 74.1788 181.29 76.373 181.29 79.8867C181.29 83.3698 179.755 85.564 177.178 85.564ZM177.178 84.0449C178.773 84.0449 179.571 82.5719 179.571 79.8867C179.571 77.1862 178.773 75.6978 177.178 75.6978C175.597 75.6978 174.784 77.1862 174.784 79.8867C174.784 82.5719 175.597 84.0449 177.178 84.0449ZM186.573 85.564C183.995 85.564 182.461 83.3851 182.461 79.8867C182.461 76.3883 184.01 74.1788 186.573 74.1788C189.151 74.1788 190.685 76.373 190.685 79.8867C190.685 83.3698 189.151 85.564 186.573 85.564ZM186.573 84.0449C188.169 84.0449 188.967 82.5719 188.967 79.8867C188.967 77.1862 188.169 75.6978 186.573 75.6978C184.992 75.6978 184.179 77.1862 184.179 79.8867C184.179 82.5719 184.992 84.0449 186.573 84.0449ZM198.84 85.5026C197.183 85.5026 196.155 84.3518 196.155 82.4031V77.1555H197.781V81.9888C197.781 83.4772 198.287 84.137 199.331 84.137C200.512 84.137 201.218 83.3391 201.218 81.9428V77.1555H202.845V85.3185H201.326L201.31 83.9836C200.881 84.9809 200.021 85.5026 198.84 85.5026ZM208.127 85.5026C205.825 85.5026 204.583 84.3518 204.46 82.7407L206.148 82.664C206.286 83.5693 206.869 84.137 208.127 84.137C209.14 84.137 209.784 83.8301 209.784 83.109C209.784 82.5105 209.477 82.2497 207.835 81.9735C205.411 81.5439 204.659 80.838 204.659 79.5031C204.659 78.0148 205.81 76.9714 207.928 76.9714C210.014 76.9714 211.119 78.1682 211.349 79.6566L209.677 79.7486C209.523 78.9047 208.925 78.337 207.912 78.337C206.853 78.337 206.347 78.7973 206.347 79.4417C206.347 80.1629 206.838 80.4544 208.173 80.6693C210.705 81.0836 211.472 81.7587 211.472 83.0936C211.472 84.628 210.076 85.5026 208.127 85.5026ZM216.598 85.5026C214.235 85.5026 212.731 83.8148 212.731 81.237C212.731 78.6592 214.235 76.9714 216.552 76.9714C218.777 76.9714 220.296 78.5518 220.296 81.2984V81.7127H214.434C214.511 83.3084 215.324 84.1063 216.613 84.1063C217.58 84.1063 218.224 83.6306 218.485 82.8634L220.173 82.9709C219.743 84.4899 218.408 85.5026 216.598 85.5026ZM214.434 80.4851H218.562C218.47 79.0428 217.672 78.3523 216.552 78.3523C215.401 78.3523 214.618 79.1042 214.434 80.4851ZM222.033 85.3185V77.1555H223.521L223.567 78.7052C223.874 77.6312 224.518 77.1555 225.516 77.1555H226.298V78.6132H225.516C224.273 78.6132 223.659 79.2116 223.659 80.5005V85.3185H222.033ZM230.828 85.5026C228.527 85.5026 227.284 84.3518 227.161 82.7407L228.849 82.664C228.987 83.5693 229.57 84.137 230.828 84.137C231.841 84.137 232.485 83.8301 232.485 83.109C232.485 82.5105 232.179 82.2497 230.537 81.9735C228.112 81.5439 227.361 80.838 227.361 79.5031C227.361 78.0148 228.511 76.9714 230.629 76.9714C232.716 76.9714 233.82 78.1682 234.051 79.6566L232.378 79.7486C232.225 78.9047 231.626 78.337 230.613 78.337C229.555 78.337 229.048 78.7973 229.048 79.4417C229.048 80.1629 229.539 80.4544 230.874 80.6693C233.406 81.0836 234.173 81.7587 234.173 83.0936C234.173 84.628 232.777 85.5026 230.828 85.5026Z" fill="#697586"/>
<rect x="314.202" y="66.3185" width="125.48" height="43.74" rx="21.87" fill="#1B91F0"/>
<path d="M339.191 92.6885V82.3722H340.76V92.6885H339.191ZM342.905 92.6885V84.9585H344.314L344.343 86.3098C344.75 85.2491 345.637 84.7842 346.697 84.7842C348.426 84.7842 349.313 86.0337 349.313 87.7192V92.6885H347.773V88.1842C347.773 86.8184 347.351 86.0773 346.276 86.0773C345.186 86.0773 344.445 86.8184 344.445 88.1842V92.6885H342.905ZM354.313 92.8628C352.134 92.8628 350.957 91.7731 350.841 90.2474L352.439 90.1748C352.57 91.0321 353.122 91.5697 354.313 91.5697C355.272 91.5697 355.882 91.2791 355.882 90.5962C355.882 90.0295 355.592 89.7825 354.037 89.5209C351.741 89.1141 351.029 88.4457 351.029 87.1816C351.029 85.7722 352.119 84.7842 354.124 84.7842C356.1 84.7842 357.147 85.9175 357.365 87.3269L355.781 87.4141C355.635 86.6149 355.069 86.0773 354.11 86.0773C353.107 86.0773 352.628 86.5132 352.628 87.1235C352.628 87.8064 353.093 88.0825 354.357 88.2859C356.754 88.6782 357.481 89.3175 357.481 90.5816C357.481 92.0346 356.159 92.8628 354.313 92.8628ZM361.747 92.6885C360.28 92.6885 359.597 92.0492 359.597 90.5962V86.2226H358.42V84.9585H359.597V83.1423H361.137V84.9585H363.186V86.2226H361.137V90.4799C361.137 91.2064 361.442 91.4244 362.081 91.4244H363.186V92.6885H361.747ZM366.965 92.8628C365.367 92.8628 364.321 92.0927 364.321 90.756C364.321 89.4338 365.105 88.7218 366.791 88.3876L369.45 87.879C369.45 86.6876 368.897 86.0919 367.793 86.0919C366.805 86.0919 366.253 86.5423 366.05 87.385L364.451 87.2833C364.742 85.7431 365.948 84.7842 367.793 84.7842C369.886 84.7842 370.99 85.9611 370.99 87.9662V90.9739C370.99 91.3517 371.121 91.468 371.411 91.468H371.687V92.6885C371.586 92.7175 371.339 92.7321 371.121 92.7321C370.234 92.7321 369.711 92.3979 369.58 91.497C369.188 92.3107 368.171 92.8628 366.965 92.8628ZM367.227 91.6423C368.607 91.6423 369.45 90.7705 369.45 89.5355V89.0414L367.197 89.4773C366.268 89.6517 365.919 90.015 365.919 90.6107C365.919 91.2791 366.398 91.6423 367.227 91.6423ZM374.8 92.6885C373.783 92.6885 373.114 92.1945 373.114 91.0466V82.3722H374.655V90.9013C374.655 91.2645 374.843 91.4244 375.192 91.4244H375.802V92.6885H374.8ZM378.986 92.6885C377.969 92.6885 377.3 92.1945 377.3 91.0466V82.3722H378.84V90.9013C378.84 91.2645 379.029 91.4244 379.378 91.4244H379.988V92.6885H378.986ZM385.321 92.6885V82.3722H387.312L392.077 90.785V82.3722H393.647V92.6885H391.583L386.89 84.4645V92.6885H385.321ZM399.199 92.8628C396.976 92.8628 395.523 91.2791 395.523 88.8235C395.523 86.3679 396.976 84.7842 399.199 84.7842C401.408 84.7842 402.861 86.3679 402.861 88.8235C402.861 91.2791 401.408 92.8628 399.199 92.8628ZM399.199 91.5261C400.507 91.5261 401.262 90.5235 401.262 88.8235C401.262 87.1235 400.507 86.1209 399.199 86.1209C397.892 86.1209 397.121 87.1235 397.121 88.8235C397.121 90.5235 397.892 91.5261 399.199 91.5261ZM405.787 92.6885L403.433 84.9585H405.046L406.703 91.003L408.403 84.9585H409.87L411.57 91.003L413.227 84.9585H414.854L412.486 92.6885H410.756L409.129 87.1671L407.516 92.6885H405.787Z" fill="white"/>
<g clip-path="url(#clip1_1_2026)">
<path d="M36.4408 136.461L34.6662 136.204L33.8725 134.595C33.8361 134.521 33.7797 134.459 33.7099 134.416C33.64 134.372 33.5594 134.349 33.4771 134.349C33.3948 134.349 33.3142 134.372 33.2443 134.416C33.1744 134.459 33.1181 134.521 33.0817 134.595L32.288 136.204L30.5129 136.461C30.4314 136.473 30.3549 136.507 30.2919 136.56C30.2289 136.613 30.182 136.683 30.1565 136.761C30.131 136.839 30.128 136.923 30.1477 137.003C30.1673 137.083 30.209 137.156 30.2679 137.213L31.5521 138.465L31.2488 140.233C31.2379 140.296 31.2411 140.361 31.2579 140.423C31.2748 140.485 31.3049 140.543 31.3463 140.592C31.3877 140.641 31.4393 140.68 31.4975 140.707C31.5558 140.734 31.6192 140.748 31.6834 140.748C31.7551 140.748 31.8255 140.73 31.8887 140.696L33.4761 139.863L35.0636 140.696C35.1363 140.734 35.2183 140.752 35.3005 140.746C35.3826 140.741 35.4615 140.712 35.5282 140.664C35.5949 140.616 35.6468 140.55 35.6781 140.474C35.7093 140.397 35.7186 140.314 35.7049 140.233L35.4016 138.465L36.6858 137.213C36.7553 137.146 36.8004 137.057 36.8143 136.961C36.849 136.72 36.6818 136.496 36.4408 136.461ZM34.6192 137.992C34.5677 138.042 34.5292 138.104 34.5071 138.172C34.485 138.24 34.4799 138.313 34.4923 138.384L34.6834 139.499L33.6814 138.973C33.6179 138.94 33.5472 138.923 33.4757 138.924C33.4042 138.924 33.3339 138.942 33.2708 138.976L32.2689 139.503L32.4605 138.387C32.4728 138.317 32.4677 138.244 32.4456 138.176C32.4235 138.107 32.3851 138.045 32.3336 137.995L31.5232 137.205L32.6432 137.042C32.714 137.032 32.7812 137.005 32.839 136.963C32.8969 136.921 32.9437 136.865 32.9754 136.801L33.4761 135.786L33.9769 136.801C34.0085 136.865 34.0553 136.921 34.1132 136.963C34.1711 137.005 34.2383 137.032 34.3091 137.042L35.4296 137.202L34.6192 137.992Z" fill="#146C2E"/>
<path d="M33.4766 131.908C30.3075 131.908 27.7384 134.477 27.7384 137.646C27.7384 140.815 30.3075 143.385 33.4766 143.385C36.6442 143.381 39.2113 140.814 39.2148 137.646C39.2148 134.477 36.6457 131.908 33.4766 131.908ZM33.4766 142.503C30.7945 142.503 28.6203 140.328 28.6203 137.646C28.6203 134.964 30.7945 132.79 33.4766 132.79C36.1574 132.793 38.3299 134.966 38.3329 137.646C38.3329 140.328 36.1586 142.503 33.4766 142.503Z" fill="#146C2E"/>
<path d="M41.5525 138.835L40.7275 139.148C40.8558 139.487 41.0156 139.909 40.9607 140.078C40.8989 140.269 40.5251 140.512 40.1949 140.727C39.8029 140.983 39.3571 141.273 39.0509 141.694C38.7446 142.116 38.6001 142.637 38.4761 143.093C38.3782 143.451 38.2576 143.897 38.1014 144.011C37.9451 144.124 37.4923 144.099 37.1215 144.082C36.6477 144.059 36.1107 144.033 35.6056 144.198C35.1157 144.357 34.7085 144.688 34.3479 144.979C34.0388 145.229 33.688 145.512 33.4768 145.512C33.2657 145.512 32.9148 145.229 32.6052 144.978C32.2446 144.686 31.8361 144.356 31.3481 144.198C31.0688 144.107 30.7557 144.065 30.3623 144.065C30.1806 144.065 30.0027 144.073 29.8312 144.082C29.4633 144.099 29.0057 144.121 28.8543 144.011C28.7029 143.901 28.577 143.45 28.479 143.092C28.3551 142.636 28.2149 142.12 27.9048 141.693C27.5946 141.267 27.1532 140.982 26.7603 140.726C26.4306 140.511 26.0567 140.268 25.995 140.077C25.9401 139.909 26.1003 139.487 26.2287 139.147C26.3987 138.697 26.5907 138.188 26.5907 137.646C26.5907 137.104 26.3982 136.595 26.2282 136.146C26.0998 135.807 25.9401 135.384 25.9945 135.215C26.0562 135.025 26.43 134.782 26.7603 134.566C27.1522 134.31 27.5976 134.02 27.9043 133.599C28.211 133.179 28.355 132.656 28.479 132.201C28.577 131.843 28.6975 131.397 28.8538 131.283C29.0101 131.169 29.4628 131.194 29.8312 131.212C30.305 131.234 30.8425 131.261 31.3501 131.095C31.84 130.937 32.2466 130.605 32.6077 130.315C32.9145 130.064 33.2653 129.781 33.4764 129.781C33.6875 129.781 34.0384 130.064 34.3475 130.315C34.7081 130.606 35.1167 130.937 35.6052 131.095C36.1108 131.259 36.6482 131.234 37.124 131.212C37.4919 131.195 37.9495 131.173 38.1009 131.283C38.2523 131.393 38.3758 131.842 38.4738 132.201C38.5977 132.657 38.7378 133.173 39.048 133.599C39.3581 134.026 39.7996 134.311 40.1925 134.567C40.5223 134.782 40.8961 135.025 40.9583 135.215C41.0132 135.384 40.853 135.807 40.7246 136.146C40.5546 136.595 40.362 137.105 40.362 137.646C40.362 138.188 40.5546 138.697 40.7246 139.147L41.1371 138.991L41.5496 138.835C41.3923 138.419 41.2439 138.027 41.2439 137.646C41.2439 137.266 41.3909 136.873 41.5491 136.458C41.7534 135.919 41.9469 135.406 41.7965 134.943C41.6383 134.456 41.1478 134.137 40.6736 133.828C40.3306 133.603 39.972 133.371 39.7608 133.081C39.5497 132.791 39.4336 132.371 39.3243 131.969C39.1699 131.402 39.0244 130.866 38.6173 130.57C38.2102 130.274 37.6639 130.304 37.0799 130.331C36.662 130.351 36.2293 130.371 35.8771 130.257C35.544 130.148 35.2171 129.884 34.9016 129.629C34.4562 129.27 33.9996 128.899 33.4763 128.899C32.9531 128.899 32.4965 129.27 32.0506 129.629C31.7351 129.885 31.4083 130.148 31.0751 130.257C30.7229 130.371 30.3093 130.352 29.8723 130.331C29.2883 130.304 28.7367 130.278 28.3344 130.57C27.9322 130.863 27.7818 131.403 27.6274 131.97C27.5182 132.371 27.4055 132.786 27.1909 133.081C26.9763 133.376 26.6235 133.603 26.2781 133.828C25.8039 134.137 25.3135 134.457 25.1552 134.943C25.0048 135.406 25.1983 135.917 25.4026 136.459C25.5594 136.874 25.7079 137.267 25.7079 137.647C25.7079 138.027 25.5609 138.419 25.4026 138.835C25.1983 139.374 25.0048 139.888 25.1552 140.35C25.3135 140.837 25.8039 141.157 26.2781 141.466C26.6211 141.691 26.9798 141.923 27.1904 142.213C27.4011 142.503 27.5177 142.923 27.6269 143.324C27.721 143.671 27.8126 144.006 27.9626 144.282L26.1762 148.85C26.1485 148.921 26.1397 148.998 26.1506 149.074C26.1615 149.149 26.1917 149.22 26.2383 149.281C26.2849 149.341 26.3464 149.388 26.4166 149.417C26.4869 149.447 26.5636 149.458 26.6393 149.449L29.1379 149.15L30.77 151.063C30.8196 151.121 30.8834 151.166 30.9552 151.192C31.027 151.218 31.1044 151.224 31.1796 151.212C31.2549 151.199 31.3255 151.166 31.3846 151.118C31.4437 151.07 31.4892 151.007 31.5167 150.935L33.2976 146.379C33.4162 146.399 33.5372 146.399 33.6558 146.379L35.4362 150.935C35.464 151.006 35.5097 151.069 35.5688 151.117C35.628 151.165 35.6986 151.197 35.7738 151.21C35.8489 151.222 35.9261 151.215 35.9977 151.189C36.0693 151.163 36.133 151.119 36.1824 151.061L37.8144 149.147L40.3131 149.446C40.3885 149.455 40.4649 149.444 40.535 149.415C40.605 149.386 40.6663 149.339 40.7129 149.279C40.7595 149.219 40.7899 149.148 40.8011 149.073C40.8122 148.998 40.8038 148.921 40.7766 148.85L38.9896 144.281C39.1395 144.005 39.2306 143.67 39.3252 143.323C39.434 142.922 39.5467 142.507 39.7618 142.212C39.9768 141.917 40.3291 141.69 40.6745 141.465C41.1488 141.156 41.6397 140.836 41.7975 140.35C41.9479 139.887 41.7549 139.376 41.5525 138.835ZM30.9614 149.931L29.6547 148.398C29.6075 148.342 29.5474 148.3 29.4797 148.273C29.412 148.247 29.3389 148.238 29.2667 148.246L27.2658 148.486L28.6714 144.891C29.0217 145.002 29.4377 144.983 29.8718 144.962C30.0335 144.954 30.2006 144.947 30.3617 144.947C30.6596 144.947 30.8864 144.975 31.0751 145.036C31.4082 145.144 31.7345 145.408 32.0506 145.664C32.1976 145.782 32.3446 145.901 32.4954 146.007L30.9614 149.931ZM39.6868 148.486L37.6864 148.246C37.6142 148.238 37.541 148.247 37.4733 148.273C37.4056 148.3 37.3455 148.343 37.2983 148.398L35.9911 149.931L34.4562 146.008C34.6071 145.901 34.755 145.782 34.901 145.665C35.2165 145.409 35.5433 145.146 35.8765 145.038C36.2283 144.923 36.6413 144.943 37.0798 144.963C37.5183 144.984 37.9298 145.003 38.2801 144.892L39.6868 148.486Z" fill="#146C2E"/>
</g>
<path d="M54.326 145.059V134.164H61.3996V135.683H55.9832V138.998H61.1234V140.471H55.9832V145.059H54.326ZM66.6737 145.243C64.3108 145.243 62.8071 143.555 62.8071 140.977C62.8071 138.399 64.3108 136.711 66.6277 136.711C68.8526 136.711 70.3716 138.292 70.3716 141.038V141.453H64.5102C64.587 143.049 65.4002 143.846 66.6891 143.846C67.6557 143.846 68.3002 143.371 68.561 142.604L70.2489 142.711C69.8192 144.23 68.4843 145.243 66.6737 145.243ZM64.5102 140.225H68.6378C68.5457 138.783 67.7478 138.092 66.6277 138.092C65.4769 138.092 64.6944 138.844 64.5102 140.225ZM74.4854 145.243C72.7975 145.243 71.6928 144.429 71.6928 143.018C71.6928 141.622 72.5213 140.87 74.3012 140.517L77.1092 139.98C77.1092 138.722 76.5261 138.092 75.36 138.092C74.3166 138.092 73.7335 138.568 73.5187 139.458L71.8309 139.351C72.1377 137.724 73.4113 136.711 75.36 136.711C77.5695 136.711 78.7356 137.954 78.7356 140.072V143.248C78.7356 143.647 78.8737 143.77 79.1806 143.77H79.4721V145.059C79.3647 145.089 79.1039 145.105 78.8737 145.105C77.9377 145.105 77.3854 144.752 77.2473 143.8C76.833 144.66 75.7589 145.243 74.4854 145.243ZM74.7616 143.954C76.2192 143.954 77.1092 143.033 77.1092 141.729V141.207L74.7309 141.668C73.7489 141.852 73.3806 142.235 73.3806 142.864C73.3806 143.57 73.8869 143.954 74.7616 143.954ZM83.54 145.059C81.9902 145.059 81.2691 144.383 81.2691 142.849V138.231H80.0262V136.896H81.2691V134.978H82.8955V136.896H85.059V138.231H82.8955V142.726C82.8955 143.494 83.2177 143.724 83.8929 143.724H85.059V145.059H83.54ZM89.4184 145.243C87.7612 145.243 86.7332 144.092 86.7332 142.143V136.896H88.3596V141.729C88.3596 143.217 88.866 143.877 89.9094 143.877C91.0909 143.877 91.7967 143.079 91.7967 141.683V136.896H93.4232V145.059H91.9041L91.8888 143.724C91.4591 144.721 90.5999 145.243 89.4184 145.243ZM95.7238 145.059V136.896H97.2121L97.2582 138.445C97.5651 137.371 98.2095 136.896 99.2069 136.896H99.9894V138.353H99.2069C97.964 138.353 97.3502 138.952 97.3502 140.241V145.059H95.7238ZM104.719 145.243C102.356 145.243 100.852 143.555 100.852 140.977C100.852 138.399 102.356 136.711 104.673 136.711C106.898 136.711 108.417 138.292 108.417 141.038V141.453H102.555C102.632 143.049 103.445 143.846 104.734 143.846C105.701 143.846 106.345 143.371 106.606 142.604L108.294 142.711C107.864 144.23 106.53 145.243 104.719 145.243ZM102.555 140.225H106.683C106.591 138.783 105.793 138.092 104.673 138.092C103.522 138.092 102.74 138.844 102.555 140.225ZM113.1 145.243C110.998 145.243 109.678 143.601 109.678 140.977C109.678 138.369 110.998 136.711 113.1 136.711C114.22 136.711 115.156 137.202 115.585 138.046V134.164H117.212V145.059H115.708L115.662 143.831C115.202 144.721 114.235 145.243 113.1 145.243ZM113.529 143.831C114.849 143.831 115.585 142.772 115.585 140.977C115.585 139.167 114.849 138.123 113.529 138.123C112.21 138.123 111.366 139.197 111.366 140.977C111.366 142.726 112.225 143.831 113.529 143.831Z" fill="#146C2E"/>
<rect opacity="0.1" x="22.3185" y="170.059" width="474" height="14" rx="7" fill="url(#paint1_linear_1_2026)"/>
<rect opacity="0.1" x="22.3185" y="200.059" width="474" height="14" rx="7" fill="url(#paint2_linear_1_2026)"/>
<rect opacity="0.1" x="22.3185" y="230.059" width="474" height="14" rx="7" fill="url(#paint3_linear_1_2026)"/>
<rect opacity="0.1" x="22.3185" y="260.059" width="213" height="14" rx="7" fill="url(#paint4_linear_1_2026)"/>
</g>
<rect x="0.697452" y="0.697452" width="460.605" height="276.605" rx="11.3025" stroke="url(#paint5_linear_1_2026)" stroke-opacity="0.4" stroke-width="1.3949"/>
<defs>
<linearGradient id="paint0_linear_1_2026" x1="231" y1="0" x2="231" y2="278" gradientUnits="userSpaceOnUse">
<stop stop-color="white"/>
<stop offset="1" stop-color="white" stop-opacity="0"/>
</linearGradient>
<linearGradient id="paint1_linear_1_2026" x1="22.3185" y1="177.059" x2="496.318" y2="177.059" gradientUnits="userSpaceOnUse">
<stop stop-color="#212F40" stop-opacity="0.8"/>
<stop offset="1" stop-color="#212F40" stop-opacity="0.5"/>
</linearGradient>
<linearGradient id="paint2_linear_1_2026" x1="22.3185" y1="207.059" x2="496.318" y2="207.059" gradientUnits="userSpaceOnUse">
<stop stop-color="#212F40" stop-opacity="0.8"/>
<stop offset="1" stop-color="#212F40" stop-opacity="0.5"/>
</linearGradient>
<linearGradient id="paint3_linear_1_2026" x1="22.3185" y1="237.059" x2="496.318" y2="237.059" gradientUnits="userSpaceOnUse">
<stop stop-color="#212F40" stop-opacity="0.8"/>
<stop offset="1" stop-color="#212F40" stop-opacity="0.5"/>
</linearGradient>
<linearGradient id="paint4_linear_1_2026" x1="22.3185" y1="267.059" x2="235.318" y2="267.059" gradientUnits="userSpaceOnUse">
<stop stop-color="#212F40" stop-opacity="0.8"/>
<stop offset="1" stop-color="#212F40" stop-opacity="0.5"/>
</linearGradient>
<linearGradient id="paint5_linear_1_2026" x1="231" y1="0" x2="231" y2="278" gradientUnits="userSpaceOnUse">
<stop stop-color="#CFD5DE"/>
<stop offset="1" stop-color="#CFD5DE" stop-opacity="0"/>
</linearGradient>
<clipPath id="clip0_1_2026">
<rect width="462" height="278" rx="12" fill="white"/>
</clipPath>
<clipPath id="clip1_1_2026">
<rect width="22.3185" height="22.3185" fill="white" transform="translate(22.3185 128.899)"/>
</clipPath>
</defs>
</svg>
