<svg width="252" height="446" viewBox="0 0 252 446" fill="none" xmlns="http://www.w3.org/2000/svg">
<g filter="url(#filter0_d_1_1127)">
<g filter="url(#filter1_bdddddd_1_1127)">
<path d="M244.371 0.416016H7.14346C3.19716 0.416016 -0.00195312 3.61611 -0.00195312 7.56362V594.382C-0.00195312 598.329 3.19716 601.529 7.14346 601.529H244.371C248.318 601.529 251.517 598.329 251.517 594.382V7.56362C251.517 3.61611 248.318 0.416016 244.371 0.416016Z" fill="white"/>
<path d="M7.14346 0.666016H244.371C248.179 0.666016 251.267 3.7541 251.267 7.56362V594.382C251.267 598.191 248.179 601.279 244.371 601.279H7.14346C3.3353 601.279 0.248047 598.191 0.248047 594.382V7.56362C0.248047 3.7541 3.3353 0.666016 7.14346 0.666016Z" stroke="#EAECF0" stroke-width="0.5"/>
</g>
</g>
<g filter="url(#filter2_ddd_1_1127)">
<path d="M251.517 0.416016H-0.00195312V47.5902H251.517V0.416016Z" fill="#1B91F0"/>
<path d="M44.1712 29.2921C41.7071 29.2921 40.1295 27.8046 39.9492 25.641L41.3015 25.5509C41.5118 27.1435 42.4884 28.03 44.2013 28.03C45.6888 28.03 46.5602 27.444 46.5602 26.3472C46.5602 25.3555 46.0644 24.7545 43.5101 24.1235C41.046 23.5075 40.1746 22.7712 40.1746 21.1786C40.1746 19.3906 41.5268 18.1435 43.7205 18.1435C46.0644 18.1435 47.4467 19.5859 47.6871 21.5392L46.3348 21.6293C46.1545 20.3372 45.2831 19.4056 43.6904 19.4056C42.3682 19.4056 41.5268 20.0968 41.5268 21.1185C41.5268 22.1252 42.0677 22.4858 44.3215 23.0417C46.9959 23.7028 47.9125 24.7245 47.9125 26.257C47.9125 28.1201 46.3499 29.2921 44.1712 29.2921ZM52.6219 29.232C51.0292 29.232 50.0075 28.1051 50.0075 26.212V21.0884H51.2696V25.8664C51.2696 27.414 51.8105 28.1201 52.9524 28.1201C54.2145 28.1201 54.9808 27.2637 54.9808 25.8363V21.0884H56.2429V29.0517H55.0409V27.7595C54.6052 28.7061 53.7638 29.232 52.6219 29.232ZM58.6498 31.3054V21.0884H59.8218L59.8368 22.3055C60.3176 21.3889 61.2041 20.9081 62.2859 20.9081C64.6598 20.9081 65.7266 22.8764 65.7266 25.0701C65.7266 27.2637 64.6598 29.232 62.2859 29.232C61.2492 29.232 60.3326 28.7662 59.9119 27.9999V31.3054H58.6498ZM62.1657 28.03C63.548 28.03 64.4044 26.9332 64.4044 25.0701C64.4044 23.207 63.548 22.1101 62.1657 22.1101C60.7834 22.1101 59.9119 23.1168 59.9119 25.0701C59.9119 27.0233 60.7684 28.03 62.1657 28.03ZM70.7115 29.232C68.4578 29.232 67.0604 27.5943 67.0604 25.0701C67.0604 22.5459 68.4578 20.9081 70.6514 20.9081C72.7249 20.9081 74.1673 22.4106 74.1673 25.0851V25.4607H68.3826C68.4728 27.1736 69.3292 28.03 70.7115 28.03C71.7482 28.03 72.4244 27.5041 72.6948 26.6928L74.0471 26.7979C73.6264 28.2253 72.3943 29.232 70.7115 29.232ZM72.785 24.3489C72.6648 22.8163 71.8234 22.1101 70.6514 22.1101C69.4194 22.1101 68.593 22.8764 68.3826 24.3489H72.785ZM76.0078 29.0517V21.0884H77.1197L77.1648 22.5609C77.4502 21.5542 78.0813 21.0884 79.0579 21.0884H79.8392V22.2904H79.0729C77.8709 22.2904 77.2699 22.9365 77.2699 24.2437V29.0517H76.0078ZM81.7051 29.0517V18.3839H83.5081L86.9188 27.6393L90.3145 18.3839H92.1175V29.0517H90.8253V20.7879L87.7752 29.0517H86.0474L82.9973 20.7879V29.0517H81.7051ZM97.8563 29.232C95.6026 29.232 94.2052 27.5943 94.2052 25.0701C94.2052 22.5459 95.6026 20.9081 97.7962 20.9081C99.8697 20.9081 101.312 22.4106 101.312 25.0851V25.4607H95.5274C95.6176 27.1736 96.474 28.03 97.8563 28.03C98.893 28.03 99.5692 27.5041 99.8396 26.6928L101.192 26.7979C100.771 28.2253 99.5391 29.232 97.8563 29.232ZM99.9298 24.3489C99.8096 22.8163 98.9682 22.1101 97.7962 22.1101C96.5642 22.1101 95.7378 22.8764 95.5274 24.3489H99.9298ZM105.686 29.0517C104.244 29.0517 103.567 28.4206 103.567 27.0083V22.2003H102.395V21.0884H103.567V19.2253H104.83V21.0884H106.948V22.2003H104.83V26.9782C104.83 27.6994 105.145 27.9398 105.806 27.9398H106.948V29.0517H105.686ZM108.772 29.0517V21.0884H109.884L109.929 22.5609C110.215 21.5542 110.846 21.0884 111.822 21.0884H112.604V22.2904H111.837C110.635 22.2904 110.034 22.9365 110.034 24.2437V29.0517H108.772ZM114.289 29.0517V21.0884H115.551V29.0517H114.289ZM114.259 19.8414V18.3689H115.581V19.8414H114.259ZM121.113 29.232C118.889 29.232 117.462 27.5943 117.462 25.0701C117.462 22.5459 118.889 20.9081 121.113 20.9081C122.946 20.9081 124.223 21.8998 124.493 23.6727L123.171 23.7629C122.991 22.7111 122.195 22.1101 121.113 22.1101C119.64 22.1101 118.784 23.222 118.784 25.0701C118.784 26.9181 119.64 28.03 121.113 28.03C122.195 28.03 122.991 27.429 123.171 26.227L124.493 26.3171C124.223 28.0901 122.946 29.232 121.113 29.232ZM129.119 29.232C126.986 29.232 125.799 28.1051 125.679 26.5425L127.001 26.4524C127.151 27.414 127.767 28.03 129.119 28.03C130.201 28.03 130.907 27.6994 130.907 26.9181C130.907 26.2871 130.592 26.0166 128.879 25.7161C126.595 25.3105 125.874 24.6043 125.874 23.3422C125.874 21.9298 126.956 20.9081 128.879 20.9081C130.817 20.9081 131.839 22.0801 132.079 23.4624L130.757 23.5525C130.577 22.7111 129.946 22.1101 128.864 22.1101C127.722 22.1101 127.196 22.606 127.196 23.2821C127.196 24.0634 127.707 24.3639 129.119 24.6043C131.553 25.025 132.229 25.656 132.229 26.9181C132.229 28.3906 130.877 29.232 129.119 29.232ZM133.646 29.0517V27.3539H135.344V29.0517H133.646ZM140.408 29.232C138.184 29.232 136.757 27.5943 136.757 25.0701C136.757 22.5459 138.184 20.9081 140.408 20.9081C142.241 20.9081 143.518 21.8998 143.788 23.6727L142.466 23.7629C142.286 22.7111 141.489 22.1101 140.408 22.1101C138.935 22.1101 138.079 23.222 138.079 25.0701C138.079 26.9181 138.935 28.03 140.408 28.03C141.489 28.03 142.286 27.429 142.466 26.227L143.788 26.3171C143.518 28.0901 142.241 29.232 140.408 29.232ZM148.624 29.232C146.416 29.232 144.973 27.6093 144.973 25.0701C144.973 22.5308 146.416 20.9081 148.624 20.9081C150.818 20.9081 152.26 22.5308 152.26 25.0701C152.26 27.6093 150.818 29.232 148.624 29.232ZM148.624 28.03C150.082 28.03 150.938 26.9181 150.938 25.0701C150.938 23.222 150.082 22.1101 148.624 22.1101C147.152 22.1101 146.296 23.222 146.296 25.0701C146.296 26.9181 147.152 28.03 148.624 28.03ZM154.097 29.0517V21.0884H155.254L155.284 22.4858C155.674 21.5091 156.501 20.9081 157.522 20.9081C158.724 20.9081 159.566 21.5091 159.911 22.5759C160.257 21.5091 161.068 20.9081 162.24 20.9081C163.938 20.9081 164.87 22.005 164.87 23.9282V29.0517H163.608V24.1986C163.608 22.7562 163.037 22.02 161.94 22.02C160.828 22.02 160.107 22.8614 160.107 24.2888V29.0517H158.845V24.2888C158.845 22.8764 158.379 22.02 157.207 22.02C156.095 22.02 155.359 22.8764 155.359 24.2888V29.0517H154.097Z" fill="white"/>
<path d="M28.5792 23.2885H19.8831L23.8775 19.293L22.8628 18.2852L17.1465 24.0032L22.8628 29.7213L23.8703 28.7135L19.8831 24.718H28.5792V23.2885Z" fill="white"/>
<path fill-rule="evenodd" clip-rule="evenodd" d="M194.71 20.4292C195.696 20.4292 196.497 19.6251 196.497 18.6423C196.497 17.6595 195.696 16.8554 194.71 16.8554C193.731 16.8554 192.924 17.6595 192.924 18.6423C192.924 19.6251 193.731 20.4292 194.71 20.4292ZM194.71 22.2161C193.731 22.2161 192.924 23.0202 192.924 24.003C192.924 24.9858 193.731 25.7899 194.71 25.7899C195.696 25.7899 196.497 24.9858 196.497 24.003C196.497 23.0202 195.696 22.2161 194.71 22.2161ZM194.71 27.5768C193.731 27.5768 192.924 28.3809 192.924 29.3637C192.924 30.3465 193.731 31.1506 194.71 31.1506C195.696 31.1506 196.497 30.3465 196.497 29.3637C196.497 28.3809 195.696 27.5768 194.71 27.5768Z" fill="white"/>
<path fill-rule="evenodd" clip-rule="evenodd" d="M222.877 19.6723L227.207 24.0045L222.877 28.3367L224.32 29.7805L228.65 25.4483L232.981 29.7805L234.424 28.3367L230.094 24.0045L234.424 19.6723L232.981 18.2285L228.65 22.5607L224.32 18.2285L222.877 19.6723Z" fill="white"/>
</g>
<path d="M24.2934 84.7568C31.3967 84.7568 37.1551 78.9966 37.1551 71.8911C37.1551 64.7856 31.3967 59.0254 24.2934 59.0254C17.19 59.0254 11.4316 64.7856 11.4316 71.8911C11.4316 78.9966 17.19 84.7568 24.2934 84.7568Z" fill="#F3F5FB"/>
<path d="M27.7413 67.3511H25.6977C25.319 67.3511 25.0189 67.6899 25.0189 68.1081V70.3781H27.7413C27.8199 70.3767 27.8913 70.4167 27.9342 70.4861C27.9842 70.5554 27.9986 70.6447 27.97 70.7269L27.4698 72.3916C27.4197 72.5446 27.2912 72.6475 27.1482 72.6489H25.0189V78.3249C25.0189 78.5336 24.8617 78.7037 24.676 78.7037H22.9753C22.7824 78.7037 22.6324 78.5336 22.6324 78.3249V72.6489H21.6105C21.4248 72.6489 21.2676 72.4795 21.2676 72.2708V70.757C21.2676 70.5475 21.4248 70.3781 21.6105 70.3781H22.6324V68.1081C22.6324 66.4362 23.8542 65.0811 25.3547 65.0811H27.7413C27.9271 65.0811 28.0772 65.2505 28.0772 65.4592V66.973C28.0772 67.1817 27.9271 67.3511 27.7413 67.3511Z" fill="#207FF8"/>
<path d="M90.7466 61.8848H46.445C46.0504 61.8848 45.7305 62.2048 45.7305 62.5995V65.4586C45.7305 65.8533 46.0504 66.1733 46.445 66.1733H90.7466C91.1412 66.1733 91.4611 65.8533 91.4611 65.4586V62.5995C91.4611 62.2048 91.1412 61.8848 90.7466 61.8848Z" fill="#C2C7D2"/>
<path d="M46.6794 79.0388H47.8871V71.491H46.6794V79.0388ZM58.1907 75.528C58.1907 74.1899 57.4048 73.2979 56.1114 73.2979C55.3183 73.2979 54.6252 73.641 54.2107 74.1785C53.8821 73.6295 53.289 73.2979 52.5101 73.2979C51.8313 73.2979 51.2882 73.5381 50.8881 73.9498V73.4237H49.7663V79.0388H50.9667V75.6995C50.9667 74.9218 51.4669 74.3958 52.2029 74.3958C52.9175 74.3958 53.3747 74.9218 53.3747 75.6995V79.0388H54.5752V75.6423C54.5752 74.9218 55.0825 74.3958 55.8113 74.3958C56.533 74.3958 56.976 74.9104 56.976 75.6995V79.0388H58.1907V75.528ZM65.7934 76.2255C65.7934 74.5673 64.6287 73.2979 63.0425 73.2979C62.2136 73.2979 61.4991 73.6295 61.0846 74.2128V73.4237H59.9628V81.0974H61.1632V78.3527C61.6134 78.8673 62.2708 79.1646 63.0425 79.1646C64.6287 79.1646 65.7934 77.9067 65.7934 76.2255ZM64.5573 76.237C64.5573 77.312 63.807 78.0668 62.8424 78.0668C61.9635 78.0668 61.1561 77.4607 61.1561 76.2255C61.1561 75.0019 61.9635 74.3958 62.8424 74.3958C63.8141 74.3958 64.5573 75.162 64.5573 76.237ZM70.4952 73.4237C70.3594 73.3894 70.2093 73.3665 70.0379 73.3665C69.4019 73.3665 68.8017 73.6524 68.4015 74.1556V73.4237H67.2869V79.0388H68.4873V76.0426C68.4873 75.0476 69.1804 74.4872 70.1307 74.4872H70.4952V73.4237ZM76.6188 76.6258C76.6759 76.3628 76.7116 76.1112 76.7116 75.871C76.7116 74.4072 75.6041 73.2979 74.1179 73.2979C72.5244 73.2636 71.1811 74.6245 71.2097 76.237C71.2097 77.8952 72.5173 79.1646 74.2322 79.1646C75.0897 79.1646 75.8328 78.8673 76.4687 78.2612L75.8971 77.4378C75.3969 77.8838 74.8467 78.1011 74.2679 78.1011C73.3033 78.1011 72.5816 77.5407 72.4387 76.6258H76.6188ZM72.4602 75.6881C72.6388 74.8532 73.2819 74.3157 74.0679 74.3157C74.861 74.3157 75.497 74.8303 75.5113 75.6881H72.4602ZM77.6691 78.0782C78.1693 78.7301 78.9696 79.1646 79.9342 79.1646C80.5273 79.1646 81.0203 79.016 81.4205 78.7186C81.8206 78.4099 82.0136 77.9867 82.0136 77.4492C82.0136 76.6601 81.542 76.2027 80.4773 75.7567L79.9414 75.5394C79.3912 75.3107 79.1982 75.162 79.1982 74.8761C79.1982 74.5216 79.4984 74.3386 79.9628 74.3386C80.4559 74.3386 80.9275 74.5444 81.2776 74.9104L81.935 74.167C81.442 73.5838 80.7988 73.2979 79.9914 73.2979C78.8481 73.2979 78.0122 73.9154 78.0122 74.9218C78.0122 75.7109 78.4766 76.1455 79.4769 76.5572L80.0486 76.7974C80.5916 77.0261 80.8346 77.1633 80.8346 77.495C80.8346 77.9067 80.4487 78.124 79.9342 78.124C79.334 78.124 78.8482 77.8381 78.3551 77.3234L77.6691 78.0782ZM82.9782 78.0782C83.4784 78.7301 84.2787 79.1646 85.2433 79.1646C85.8364 79.1646 86.3294 79.016 86.7295 78.7186C87.1297 78.4099 87.3226 77.9867 87.3226 77.4492C87.3226 76.6601 86.851 76.2027 85.7934 75.7567L85.2505 75.5394C84.7074 75.3107 84.5073 75.162 84.5073 74.8761C84.5073 74.5216 84.8074 74.3386 85.279 74.3386C85.7649 74.3386 86.2365 74.5444 86.5937 74.9104L87.244 74.167C86.7509 73.5838 86.1079 73.2979 85.3005 73.2979C84.1572 73.2979 83.3212 73.9154 83.3212 74.9218C83.3212 75.7109 83.7928 76.1455 84.786 76.5572L85.3576 76.7974C85.9078 77.0261 86.1437 77.1633 86.1437 77.495C86.1437 77.9067 85.7578 78.124 85.2433 78.124C84.6502 78.124 84.1572 77.8381 83.6641 77.3234L82.9782 78.0782ZM88.816 79.0388H90.0164V73.4237H88.816V79.0388ZM88.5945 71.3309C88.5945 71.7769 88.9661 72.12 89.4234 72.12C89.8664 72.12 90.2308 71.7769 90.2308 71.3309C90.2308 70.8849 89.8664 70.5303 89.4234 70.5303C88.9661 70.5303 88.5945 70.8849 88.5945 71.3309ZM91.5027 76.2255C91.467 77.8152 92.8531 79.1989 94.4608 79.1646C96.0971 79.1989 97.4834 77.8152 97.4477 76.2255C97.4834 74.6359 96.0971 73.2636 94.4608 73.2979C92.8531 73.275 91.467 74.613 91.5027 76.2255ZM96.2115 76.237C96.2115 77.2548 95.4612 78.0553 94.4608 78.0553C93.4819 78.0553 92.7246 77.2777 92.7246 76.237C92.7246 75.1963 93.4819 74.3958 94.4751 74.3958C95.4469 74.3958 96.2115 75.1963 96.2115 76.237ZM103.836 75.528C103.836 74.1899 103.05 73.2979 101.735 73.2979C101.035 73.2979 100.477 73.5266 100.049 73.9726V73.4237H98.9339V79.0388H100.134V75.6881C100.134 74.9218 100.67 74.3843 101.413 74.3843C102.142 74.3843 102.635 74.9104 102.635 75.6881V79.0388H103.836V75.528ZM105.086 78.0782C105.593 78.7301 106.394 79.1646 107.351 79.1646C107.944 79.1646 108.437 79.016 108.837 78.7186C109.238 78.4099 109.431 77.9867 109.431 77.4492C109.431 76.6601 108.966 76.2027 107.901 75.7567L107.366 75.5394C106.815 75.3107 106.622 75.162 106.622 74.8761C106.622 74.5216 106.915 74.3386 107.387 74.3386C107.88 74.3386 108.344 74.5444 108.702 74.9104L109.352 74.167C108.859 73.5838 108.223 73.2979 107.408 73.2979C106.265 73.2979 105.429 73.9154 105.429 74.9218C105.429 75.7109 105.901 76.1455 106.894 76.5572L107.466 76.7974C108.016 77.0261 108.259 77.1633 108.259 77.495C108.259 77.9067 107.866 78.124 107.351 78.124C106.758 78.124 106.265 77.8381 105.772 77.3234L105.086 78.0782Z" fill="#2C3039"/>
<path d="M251.517 96.1934H-0.00195312V96.9081H251.517V96.1934Z" fill="#E0E6EE"/>
<path d="M16.4551 126.213H17.9057L14.9617 119.488H14.5116L11.5605 126.213H13.011L13.3826 125.352H16.0836L16.4551 126.213ZM15.6119 124.242H13.8542L14.7331 122.01L15.6119 124.242ZM18.663 124.032C18.663 125.412 19.6348 126.333 20.9495 126.333C22.2429 126.333 23.2218 125.412 23.2218 124.032V121.26H21.8713V124.142C21.8713 124.712 21.4712 125.092 20.9495 125.092C20.3994 125.092 20.0135 124.712 20.0135 124.142V121.26H18.663V124.032ZM27.8377 125.082C27.4876 125.112 27.2804 125.122 27.2018 125.122C26.5587 125.122 26.2801 124.912 26.2801 124.352V122.4H27.6806V121.26H26.2801V120.009H24.9296V121.26H24.1508V122.4H24.9296V124.472C24.9296 125.713 25.6584 126.333 26.9089 126.333C27.209 126.333 27.5162 126.293 27.8377 126.213V125.082ZM28.588 123.731C28.5523 125.142 29.7741 126.353 31.2247 126.323C32.6752 126.353 33.9256 125.142 33.897 123.731C33.9256 122.32 32.6895 121.13 31.239 121.15C29.7884 121.12 28.5523 122.32 28.588 123.731ZM32.518 123.741C32.518 124.512 31.9678 125.082 31.239 125.082C30.4887 125.082 29.9528 124.512 29.9528 123.741C29.9528 122.951 30.4887 122.38 31.239 122.38C31.9678 122.38 32.518 122.971 32.518 123.741ZM41.0782 121.26C40.9496 121.22 40.8138 121.2 40.6424 121.2C40.0922 121.2 39.6134 121.44 39.2776 121.85V121.26H38.0414V126.213H39.3919V123.741C39.3919 122.891 39.9135 122.45 40.7209 122.45H41.0782V121.26ZM46.5159 124.192C46.573 123.941 46.6088 123.691 46.6088 123.451C46.6088 122.16 45.6441 121.15 44.2722 121.15C42.8431 121.12 41.657 122.31 41.6856 123.741C41.657 125.172 42.8646 126.363 44.3937 126.333C45.1225 126.333 45.7871 126.083 46.373 125.593L45.8156 124.672C45.3869 125.002 44.9224 125.172 44.4365 125.172C43.7148 125.172 43.2076 124.822 43.0432 124.192H46.5159ZM43.0432 123.241C43.1933 122.631 43.6577 122.24 44.2222 122.24C44.8153 122.24 45.2869 122.631 45.294 123.241H43.0432ZM49.3812 120.569C49.3812 120.009 49.6742 119.799 50.2815 119.799C50.403 119.799 50.5317 119.809 50.6817 119.829V118.698C50.453 118.628 50.2029 118.588 49.9457 118.588C48.7524 118.588 48.0307 119.208 48.0307 120.449V121.26H47.3305V122.4H48.0307V126.213H49.3812V122.4H50.4745V121.26H49.3812V120.569ZM54.4044 121.26C54.2758 121.22 54.1329 121.2 53.9686 121.2C53.4184 121.2 52.9325 121.44 52.6038 121.85V121.26H51.3676V126.213H52.7181V123.741C52.7181 122.891 53.2326 122.45 54.0472 122.45H54.4044V121.26ZM59.8421 124.192C59.8993 123.941 59.9278 123.691 59.9278 123.451C59.9278 122.16 58.9703 121.15 57.5984 121.15C56.1693 121.12 54.976 122.31 55.0046 123.741C54.976 125.172 56.1908 126.363 57.7199 126.333C58.4488 126.333 59.1061 126.083 59.6992 125.593L59.1419 124.672C58.706 125.002 58.2486 125.172 57.7556 125.172C57.0411 125.172 56.5266 124.822 56.3694 124.192H59.8421ZM56.3694 123.241C56.5195 122.631 56.9768 122.24 57.5484 122.24C58.1415 122.24 58.606 122.631 58.6203 123.241H56.3694ZM60.6781 125.372C61.1283 125.973 61.8571 126.333 62.7289 126.333C63.2862 126.333 63.7506 126.193 64.1079 125.913C64.4794 125.633 64.6581 125.242 64.6581 124.752C64.6581 124.021 64.2294 123.631 63.2648 123.241L62.786 123.041C62.4001 122.881 62.2644 122.791 62.2644 122.601C62.2644 122.37 62.4645 122.25 62.8003 122.25C63.2076 122.25 63.5791 122.41 63.9078 122.721L64.5867 121.89C64.1365 121.4 63.5506 121.15 62.8075 121.15C61.7285 121.15 60.9853 121.7 60.9853 122.631C60.9853 123.361 61.4284 123.771 62.3358 124.142L62.8646 124.362C63.2361 124.522 63.379 124.602 63.379 124.812C63.379 125.082 63.1075 125.222 62.7502 125.222C62.2572 125.222 61.7856 125.002 61.3569 124.552L60.6781 125.372ZM70.3744 123.141C70.3744 121.94 69.6528 121.15 68.5309 121.15C67.9807 121.15 67.502 121.35 67.1733 121.68V118.708H65.8228V126.213H67.1733V123.331C67.1733 122.761 67.5591 122.37 68.1093 122.37C68.6595 122.37 69.0311 122.761 69.0311 123.331V126.213H70.3744V123.141ZM74.3116 125.372C74.7617 125.973 75.4905 126.333 76.3623 126.333C76.9268 126.333 77.3841 126.193 77.7414 125.913C78.113 125.633 78.2915 125.242 78.2915 124.752C78.2915 124.021 77.8628 123.631 76.9053 123.241L76.4266 123.041C76.0336 122.881 75.905 122.791 75.905 122.601C75.905 122.37 76.105 122.25 76.4337 122.25C76.841 122.25 77.2126 122.41 77.5413 122.721L78.2272 121.89C77.7771 121.4 77.184 121.15 76.4409 121.15C75.3619 121.15 74.6259 121.7 74.6259 122.631C74.6259 123.361 75.0618 123.771 75.9764 124.142L76.5052 124.362C76.8767 124.522 77.0126 124.602 77.0126 124.812C77.0126 125.082 76.741 125.222 76.3837 125.222C75.8907 125.222 75.4262 125.002 74.9903 124.552L74.3116 125.372ZM79.1776 123.731C79.1562 125.162 80.378 126.363 81.8286 126.333C82.786 126.333 83.5506 125.863 83.9793 125.102L83.0361 124.382C82.7217 124.832 82.3573 125.092 81.85 125.092C81.0854 125.092 80.5495 124.522 80.5495 123.731C80.5495 122.961 81.0854 122.38 81.85 122.38C82.3716 122.38 82.7288 122.651 83.0361 123.101L83.9793 122.37C83.5506 121.61 82.8003 121.15 81.8286 121.15C80.3566 121.15 79.1776 122.28 79.1776 123.731ZM89.6742 123.141C89.6742 121.94 88.9525 121.15 87.8307 121.15C87.2805 121.15 86.8018 121.35 86.4731 121.68V118.708H85.1226V126.213H86.4731V123.331C86.4731 122.761 86.8589 122.37 87.4091 122.37C87.9593 122.37 88.3309 122.761 88.3309 123.331V126.213H89.6742V123.141ZM95.6692 124.192C95.7264 123.941 95.755 123.691 95.755 123.451C95.755 122.16 94.7975 121.15 93.4255 121.15C91.9965 121.12 90.8032 122.31 90.8318 123.741C90.8032 125.172 92.0179 126.363 93.5471 126.333C94.2759 126.333 94.9332 126.083 95.5263 125.593L94.969 124.672C94.5331 125.002 94.0758 125.172 93.5827 125.172C92.8682 125.172 92.3538 124.822 92.1966 124.192H95.6692ZM92.1966 123.241C92.3466 122.631 92.8039 122.24 93.3756 122.24C93.9686 122.24 94.4331 122.631 94.4474 123.241H92.1966ZM100.557 118.708V121.74C100.192 121.35 99.7064 121.15 99.0776 121.15C97.6914 121.15 96.6768 122.25 96.6768 123.741C96.6768 125.232 97.6914 126.333 99.0776 126.333C99.7564 126.333 100.335 126.073 100.664 125.603V126.213H101.907V118.708H100.557ZM100.578 123.741C100.578 124.632 100.006 125.102 99.3277 125.102C98.5917 125.102 98.0415 124.562 98.0415 123.731C98.0415 122.921 98.606 122.37 99.3277 122.37C100.006 122.37 100.578 122.861 100.578 123.741ZM103.336 124.032C103.336 125.412 104.308 126.333 105.63 126.333C106.916 126.333 107.902 125.412 107.902 124.032V121.26H106.552V124.142C106.552 124.712 106.152 125.092 105.63 125.092C105.08 125.092 104.687 124.712 104.687 124.142V121.26H103.336V124.032ZM109.331 126.213H110.682V118.708H109.331V126.213ZM116.712 124.192C116.777 123.941 116.805 123.691 116.805 123.451C116.805 122.16 115.848 121.15 114.476 121.15C113.047 121.12 111.854 122.31 111.882 123.741C111.854 125.172 113.061 126.363 114.597 126.333C115.326 126.333 115.984 126.083 116.577 125.593L116.012 124.672C115.583 125.002 115.126 125.172 114.633 125.172C113.911 125.172 113.404 124.822 113.247 124.192H116.712ZM113.247 123.241C113.397 122.631 113.854 122.24 114.426 122.24C115.012 122.24 115.483 122.631 115.498 123.241H113.247Z" fill="#2C3039"/>
<mask id="mask0_1_1127" style="mask-type:luminance" maskUnits="userSpaceOnUse" x="211" y="109" width="30" height="29">
<path d="M240.082 109.058H211.5V137.648H240.082V109.058Z" fill="white"/>
</mask>
<g mask="url(#mask0_1_1127)">
<path opacity="0.38" fill-rule="evenodd" clip-rule="evenodd" d="M213.643 123.352C213.643 120.589 215.879 118.349 218.644 118.349H232.935C235.701 118.349 237.937 120.589 237.937 123.352C237.937 126.115 235.701 128.355 232.935 128.355H218.644C215.879 128.355 213.643 126.115 213.643 123.352Z" fill="#1B91F0"/>
<g filter="url(#filter3_ddd_1_1127)">
<path fill-rule="evenodd" clip-rule="evenodd" d="M224.361 123.354C224.361 119.406 227.562 116.206 231.507 116.206C235.451 116.206 238.652 119.406 238.652 123.354C238.652 127.301 235.451 130.501 231.507 130.501C227.562 130.501 224.361 127.301 224.361 123.354Z" fill="#1B91F0"/>
</g>
</g>
<path d="M251.517 149.801H-0.00195312V150.516H251.517V149.801Z" fill="#E0E6EE"/>
<path d="M24.2935 191.257C31.3969 191.257 37.1553 185.496 37.1553 178.391C37.1553 171.285 31.3969 165.525 24.2935 165.525C17.1902 165.525 11.4318 171.285 11.4318 178.391C11.4318 185.496 17.1902 191.257 24.2935 191.257Z" fill="#E5EBFA"/>
<path fill-rule="evenodd" clip-rule="evenodd" d="M24.287 173.388C27.1166 173.358 29.6675 175.124 30.7179 177.835C30.725 177.9 30.725 177.968 30.7179 178.033C30.7179 178.108 30.7036 178.183 30.6821 178.253C29.6317 180.941 27.0952 182.696 24.287 182.679C21.4789 182.694 18.9494 180.933 17.899 178.239C17.8776 178.174 17.8633 178.104 17.8633 178.033C17.8633 177.959 17.8776 177.885 17.899 177.815C18.9494 175.126 21.486 173.371 24.287 173.388ZM22.3649 178.033C22.3649 179.133 23.2295 180.024 24.2942 180.024C24.8015 180.024 25.2945 179.814 25.6518 179.441C26.0162 179.068 26.2162 178.561 26.2162 178.033C26.2162 176.933 25.3588 176.042 24.2942 176.042C23.2295 176.042 22.3649 176.933 22.3649 178.033Z" fill="#1B91F0"/>
<path d="M48.057 174.819V169.336H45.9062V168.686H50.951V169.336H48.7859V174.819H48.057ZM51.0009 172.551C50.9866 171.907 51.2153 171.35 51.6869 170.879C52.1656 170.408 52.7229 170.179 53.366 170.191C54.0163 170.179 54.5808 170.408 55.0453 170.879C55.5169 171.35 55.7455 171.907 55.7383 172.551C55.7455 173.19 55.5169 173.747 55.0381 174.224C54.5594 174.695 54.002 174.924 53.359 174.911C52.7159 174.924 52.1585 174.695 51.6869 174.224C51.2153 173.747 50.9866 173.19 51.0009 172.551ZM55.0024 172.561C55.0024 172.077 54.8451 171.671 54.5307 171.343C54.2163 171.015 53.8305 170.851 53.366 170.851C52.9016 170.851 52.5158 171.015 52.1943 171.343C51.887 171.666 51.7298 172.071 51.7298 172.561C51.7298 173.037 51.887 173.44 52.1943 173.769C52.5158 174.091 52.9017 174.252 53.359 174.252C53.8163 174.252 54.2021 174.087 54.5165 173.759C54.8381 173.431 55.0024 173.032 55.0024 172.561ZM59.5683 174.215V174.819C59.2682 174.886 59.0181 174.921 58.818 174.921C58.3321 174.921 57.9606 174.797 57.6962 174.549C57.4318 174.301 57.296 173.936 57.296 173.453V170.935H56.5315V170.293H57.296V169.058H58.0105V170.293H59.4254V170.935H58.0105V173.406C58.0105 173.716 58.0892 173.939 58.2392 174.075C58.4036 174.205 58.6465 174.27 58.9681 174.27C59.1396 174.27 59.3396 174.252 59.5683 174.215ZM64.1342 172.031V174.819H63.4697V174.233C63.1195 174.691 62.6122 174.921 61.9405 174.921C61.4761 174.921 61.0902 174.806 60.7973 174.577C60.5115 174.342 60.3614 174.032 60.3614 173.648C60.3614 173.264 60.5115 172.957 60.8116 172.728C61.1045 172.498 61.4976 172.384 61.9906 172.384H63.4197V171.994C63.4197 171.629 63.3196 171.346 63.1195 171.148C62.9338 170.95 62.6622 170.851 62.3264 170.851C61.8191 170.851 61.3761 171.092 61.0045 171.576L60.5329 171.185C60.933 170.523 61.5476 170.191 62.3693 170.191C62.9124 170.191 63.3482 170.352 63.6626 170.674C63.977 170.99 64.1342 171.443 64.1342 172.031ZM63.4197 173.081V172.969H62.0763C61.4261 172.969 61.0974 173.183 61.0974 173.611C61.0974 173.834 61.1831 174.01 61.3546 174.14C61.5404 174.264 61.7619 174.326 62.0334 174.326C62.4121 174.326 62.7408 174.205 63.0123 173.964C63.2839 173.722 63.4197 173.428 63.4197 173.081ZM65.7634 174.819V167.85H66.4779V174.819H65.7634ZM70.9224 174.819V168.686H71.6441V174.819H70.9224ZM79.9327 171.975V174.819H79.2182V172.068C79.2182 171.696 79.1253 171.402 78.9323 171.185C78.7466 170.962 78.4822 170.851 78.1535 170.851C77.8177 170.851 77.539 170.962 77.3175 171.185C77.096 171.408 76.9888 171.681 76.9888 172.003V174.819H76.2743V172.068C76.2743 171.703 76.1742 171.408 75.9741 171.185C75.7812 170.962 75.524 170.851 75.1953 170.851C74.8523 170.851 74.5736 170.965 74.3593 171.195C74.152 171.418 74.0449 171.709 74.0449 172.068V174.819H73.3304V170.293H73.9949V170.767C74.3308 170.383 74.7808 170.191 75.3453 170.191C76.0027 170.191 76.4672 170.451 76.7387 170.972C77.1032 170.451 77.6176 170.191 78.2892 170.191C78.8037 170.191 79.2039 170.352 79.4969 170.674C79.7898 170.997 79.9327 171.43 79.9327 171.975ZM85.5275 170.869C85.9563 171.322 86.1707 171.882 86.1707 172.551C86.1707 173.22 85.9563 173.784 85.5204 174.242C85.0917 174.695 84.5629 174.921 83.9341 174.921C83.2196 174.921 82.6694 174.67 82.2693 174.168V176.491H81.5547V170.293H82.2264V171.018C82.3979 170.758 82.6337 170.556 82.9409 170.414C83.241 170.266 83.5769 170.191 83.9341 170.191C84.5772 170.191 85.1131 170.417 85.5275 170.869ZM84.9703 173.778C85.2847 173.455 85.4347 173.05 85.4347 172.561C85.4347 172.071 85.2847 171.666 84.9703 171.343C84.6702 171.015 84.2914 170.851 83.8341 170.851C83.3982 170.851 83.0267 171 82.7194 171.297C82.4122 171.594 82.2621 172.012 82.2621 172.551C82.2621 173.102 82.4122 173.527 82.7051 173.824C83.0124 174.115 83.3839 174.261 83.8341 174.261C84.2914 174.261 84.6702 174.1 84.9703 173.778ZM89.9363 170.293V170.925H89.6648C89.2718 170.925 88.9359 171.046 88.6572 171.288C88.3857 171.529 88.25 171.852 88.25 172.254V174.819H87.5283V170.293H88.1999V170.935C88.5358 170.482 89.0003 170.256 89.6005 170.256C89.722 170.256 89.8291 170.268 89.9363 170.293ZM94.9095 172.774H91.3296C91.3725 173.22 91.5512 173.58 91.8585 173.852C92.1729 174.124 92.5515 174.261 92.9946 174.261C93.509 174.261 93.9663 174.057 94.3807 173.648L94.7952 174.131C94.2879 174.658 93.6877 174.921 92.9874 174.921C92.3086 174.921 91.7369 174.695 91.2725 174.242C90.8152 173.784 90.5866 173.223 90.5866 172.561C90.5866 171.904 90.808 171.346 91.2582 170.888C91.7083 170.423 92.2586 170.191 92.9017 170.191C93.4876 170.191 93.9806 170.383 94.3664 170.767C94.7666 171.151 94.9667 171.641 94.9667 172.235C94.9667 172.409 94.9452 172.588 94.9095 172.774ZM91.3582 172.142H94.2307C94.2236 171.746 94.0949 171.43 93.8377 171.195C93.5876 170.96 93.2661 170.842 92.8802 170.842C92.5086 170.842 92.18 170.962 91.9013 171.204C91.6226 171.439 91.4368 171.752 91.3582 172.142ZM95.9027 174.038L96.3529 173.564C96.5887 173.806 96.8031 173.982 96.996 174.094C97.196 174.205 97.4176 174.261 97.6534 174.261C97.9106 174.261 98.1178 174.205 98.275 174.094C98.4394 173.976 98.518 173.818 98.518 173.62C98.518 173.446 98.4608 173.313 98.3465 173.22C98.2321 173.121 98.0249 173.013 97.732 172.895L97.2961 172.709C96.9031 172.548 96.6172 172.372 96.4386 172.18C96.26 171.987 96.1671 171.746 96.1671 171.455C96.1671 171.071 96.31 170.764 96.5958 170.535C96.8888 170.306 97.2532 170.191 97.6962 170.191C98.3036 170.191 98.8109 170.43 99.2039 170.907L98.768 171.353C98.4393 171.018 98.0678 170.851 97.6534 170.851C97.4247 170.851 97.2461 170.9 97.1103 171C96.9746 171.099 96.9031 171.238 96.9031 171.418C96.9031 171.56 96.9531 171.678 97.0531 171.771C97.1603 171.857 97.3533 171.959 97.6391 172.077L98.0535 172.254C98.4894 172.44 98.7966 172.635 98.9753 172.839C99.161 173.037 99.254 173.288 99.254 173.592C99.254 174.013 99.0967 174.342 98.7895 174.577C98.4822 174.806 98.1106 174.921 97.6676 174.921C96.9388 174.921 96.3529 174.626 95.9027 174.038ZM100.226 174.038L100.683 173.564C100.919 173.806 101.133 173.982 101.319 174.094C101.519 174.205 101.741 174.261 101.983 174.261C102.234 174.261 102.441 174.205 102.605 174.094C102.762 173.976 102.848 173.818 102.848 173.62C102.848 173.446 102.784 173.313 102.669 173.22C102.555 173.121 102.355 173.013 102.055 172.895L101.619 172.709C101.226 172.548 100.947 172.372 100.762 172.18C100.583 171.987 100.497 171.746 100.497 171.455C100.497 171.071 100.64 170.764 100.919 170.535C101.212 170.306 101.576 170.191 102.019 170.191C102.634 170.191 103.134 170.43 103.534 170.907L103.098 171.353C102.762 171.018 102.391 170.851 101.983 170.851C101.755 170.851 101.569 170.9 101.433 171C101.297 171.099 101.226 171.238 101.226 171.418C101.226 171.56 101.276 171.678 101.376 171.771C101.483 171.857 101.676 171.959 101.962 172.077L102.384 172.254C102.812 172.44 103.12 172.635 103.298 172.839C103.484 173.037 103.577 173.288 103.577 173.592C103.577 174.013 103.427 174.342 103.112 174.577C102.812 174.806 102.434 174.921 101.991 174.921C101.269 174.921 100.676 174.626 100.226 174.038ZM104.977 174.819V170.293H105.692V174.819H104.977ZM104.799 168.565C104.799 168.423 104.856 168.302 104.963 168.203C105.063 168.098 105.192 168.045 105.342 168.045C105.485 168.045 105.606 168.098 105.713 168.203C105.821 168.302 105.871 168.423 105.871 168.565C105.871 168.714 105.821 168.837 105.713 168.937C105.613 169.036 105.492 169.085 105.342 169.085C105.192 169.085 105.063 169.036 104.963 168.937C104.856 168.837 104.799 168.714 104.799 168.565ZM107.05 172.551C107.035 171.907 107.264 171.35 107.736 170.879C108.207 170.408 108.772 170.179 109.415 170.191C110.065 170.179 110.622 170.408 111.094 170.879C111.565 171.35 111.794 171.907 111.787 172.551C111.794 173.19 111.565 173.747 111.087 174.224C110.608 174.695 110.051 174.924 109.408 174.911C108.764 174.924 108.207 174.695 107.736 174.224C107.264 173.747 107.035 173.19 107.05 172.551ZM111.051 172.561C111.051 172.077 110.894 171.671 110.579 171.343C110.265 171.015 109.879 170.851 109.415 170.851C108.95 170.851 108.557 171.015 108.243 171.343C107.936 171.666 107.778 172.071 107.778 172.561C107.778 173.037 107.936 173.44 108.243 173.769C108.557 174.091 108.95 174.252 109.408 174.252C109.865 174.252 110.251 174.087 110.565 173.759C110.887 173.431 111.051 173.032 111.051 172.561ZM116.889 171.975V174.819H116.174V172.059C116.174 171.699 116.074 171.408 115.867 171.185C115.674 170.962 115.403 170.851 115.052 170.851C114.702 170.851 114.424 170.965 114.195 171.195C113.973 171.418 113.866 171.706 113.866 172.059V174.819H113.152V170.293H113.816V170.777C114.174 170.386 114.638 170.191 115.21 170.191C115.731 170.191 116.139 170.356 116.439 170.684C116.739 171.006 116.889 171.436 116.889 171.975ZM118.089 174.038L118.547 173.564C118.782 173.806 118.997 173.982 119.183 174.094C119.383 174.205 119.604 174.261 119.847 174.261C120.097 174.261 120.304 174.205 120.469 174.094C120.626 173.976 120.712 173.818 120.712 173.62C120.712 173.446 120.647 173.313 120.533 173.22C120.419 173.121 120.219 173.013 119.918 172.895L119.483 172.709C119.09 172.548 118.811 172.372 118.625 172.18C118.447 171.987 118.361 171.746 118.361 171.455C118.361 171.071 118.504 170.764 118.789 170.535C119.075 170.306 119.44 170.191 119.883 170.191C120.497 170.191 120.997 170.43 121.398 170.907L120.962 171.353C120.626 171.018 120.254 170.851 119.847 170.851C119.618 170.851 119.433 170.9 119.297 171C119.161 171.099 119.09 171.238 119.09 171.418C119.09 171.56 119.14 171.678 119.24 171.771C119.347 171.857 119.54 171.959 119.826 172.077L120.247 172.254C120.676 172.44 120.983 172.635 121.162 172.839C121.348 173.037 121.44 173.288 121.44 173.592C121.44 174.013 121.29 174.342 120.976 174.577C120.676 174.806 120.297 174.921 119.854 174.921C119.132 174.921 118.539 174.626 118.089 174.038Z" fill="#7E8B9D"/>
<path d="M47.6822 189.126H50.7904V189.827H46.2031V189.627L48.5539 187.125C48.9826 186.678 49.2827 186.314 49.4542 186.034C49.6257 185.748 49.7115 185.454 49.7115 185.154C49.7115 184.78 49.5971 184.467 49.3613 184.213C49.1327 183.959 48.8255 183.833 48.4396 183.833C48.0395 183.833 47.725 183.966 47.4821 184.233C47.2392 184.507 47.1248 184.827 47.1248 185.194C47.1248 185.38 47.1392 185.564 47.182 185.744H46.3818C46.3317 185.578 46.3103 185.384 46.3103 185.164C46.3103 184.617 46.5104 184.139 46.9105 183.733C47.3107 183.319 47.8251 183.112 48.4396 183.112C49.0399 183.112 49.54 183.306 49.933 183.693C50.326 184.073 50.526 184.547 50.526 185.114C50.526 185.427 50.4617 185.72 50.3331 185.994C50.2116 186.254 50.0687 186.498 49.8901 186.725C49.7186 186.951 49.4686 187.239 49.1399 187.585L47.6822 189.126ZM56.2781 187.735C56.2781 188.382 56.0495 188.913 55.5851 189.326C55.1349 189.733 54.5847 189.937 53.9344 189.937C53.4485 189.937 53.0127 189.813 52.6197 189.567C52.2267 189.313 51.9266 188.98 51.6979 188.566L52.2481 188.176C52.7197 188.87 53.277 189.216 53.9273 189.216C54.3774 189.216 54.749 189.083 55.0348 188.816C55.3278 188.542 55.4707 188.186 55.4707 187.745C55.4707 187.319 55.3207 186.985 55.0277 186.745C54.7419 186.505 54.3275 186.384 53.7987 186.384H53.1484V186.154L54.8777 183.943H52.1481V183.222H56.1067V183.453L54.356 185.704C54.8919 185.758 55.3421 185.964 55.7208 186.324C56.0923 186.678 56.2781 187.149 56.2781 187.735ZM57.8287 191.618L57.9573 188.926H58.8648L58.4575 191.618H57.8287ZM64.8383 187.715C64.8383 188.342 64.6168 188.87 64.1809 189.296C63.7451 189.723 63.2163 189.937 62.5875 189.937C61.9587 189.937 61.43 189.723 60.9869 189.296C60.5511 188.87 60.3367 188.339 60.3367 187.705C60.3367 187.372 60.401 187.069 60.5153 186.795C60.6654 186.495 60.8584 186.164 61.1085 185.804C61.137 185.771 61.1585 185.734 61.187 185.694C61.2228 185.648 61.2442 185.618 61.2513 185.604L62.8877 183.222H63.8166L62.1374 185.644C62.3017 185.584 62.4803 185.554 62.6876 185.554C63.2735 185.554 63.7808 185.764 64.2024 186.184C64.624 186.605 64.8383 187.115 64.8383 187.715ZM64.0667 187.715C64.0667 187.302 63.9238 186.948 63.638 186.655C63.3521 186.361 63.0019 186.214 62.5875 186.214C62.1731 186.214 61.823 186.361 61.5372 186.655C61.2513 186.948 61.1085 187.302 61.1085 187.715C61.1085 188.136 61.2513 188.492 61.5372 188.786C61.823 189.08 62.1731 189.226 62.5875 189.226C63.0019 189.226 63.3521 189.08 63.638 188.786C63.9238 188.492 64.0667 188.136 64.0667 187.715ZM70.2974 187.735C70.2974 188.382 70.0688 188.913 69.6044 189.326C69.1542 189.733 68.604 189.937 67.9537 189.937C67.4678 189.937 67.0248 189.813 66.6318 189.567C66.246 189.313 65.9387 188.98 65.7172 188.566L66.2674 188.176C66.739 188.87 67.2963 189.216 67.9466 189.216C68.3967 189.216 68.7683 189.083 69.0542 188.816C69.34 188.542 69.4829 188.186 69.4829 187.745C69.4829 187.319 69.34 186.985 69.047 186.745C68.7612 186.505 68.3468 186.384 67.818 186.384H67.1678V186.154L68.897 183.943H66.1674V183.222H70.126V183.453L68.3753 185.704C68.9112 185.758 69.3614 185.964 69.7329 186.324C70.1116 186.678 70.2974 187.149 70.2974 187.735ZM75.7852 187.735C75.7852 188.382 75.5565 188.913 75.0991 189.326C74.6418 189.733 74.0917 189.937 73.4486 189.937C72.9556 189.937 72.5196 189.813 72.1266 189.567C71.7408 189.313 71.4336 188.98 71.2049 188.566L71.7551 188.176C72.2267 188.87 72.7912 189.216 73.4343 189.216C73.8916 189.216 74.256 189.083 74.5489 188.816C74.8348 188.542 74.9777 188.186 74.9777 187.745C74.9777 187.319 74.8277 186.985 74.5347 186.745C74.2489 186.505 73.8415 186.384 73.3056 186.384H72.6555V186.154L74.3846 183.943H71.6551V183.222H75.6136V183.453L73.863 185.704C74.3989 185.758 74.8491 185.964 75.2278 186.324C75.5994 186.678 75.7852 187.149 75.7852 187.735Z" fill="#2C3039"/>
<path fill-rule="evenodd" clip-rule="evenodd" d="M30.7205 216.987H17.8588C17.0656 216.987 16.4297 217.623 16.4297 218.417V226.994C16.4297 227.78 17.0656 228.423 17.8588 228.423H21.4315V229.853H27.1478V228.423H30.7205C31.5065 228.423 32.1496 227.78 32.1496 226.994V218.417C32.1496 217.623 31.5065 216.987 30.7205 216.987ZM23.5751 225.564H25.0042V223.42H27.1478V221.991H25.0042V219.846H23.5751V221.991H21.4315V223.42H23.5751V225.564ZM17.8588 226.994H30.7205V218.417H17.8588V226.994Z" fill="#1B91F0"/>
<path d="M46.4844 226.28V219.676H47.8348V226.28H46.4844ZM53.7298 219.676H55.0802V226.4H54.6301L50.8073 222.317V226.28H49.4568V219.556H49.8998L53.7298 223.618V219.676ZM56.2378 224.939L57.1667 224.239C57.6312 224.879 58.1743 225.199 58.7888 225.199C59.0817 225.199 59.3103 225.136 59.4747 225.009C59.6462 224.875 59.7248 224.695 59.7248 224.469C59.7248 224.282 59.6676 224.139 59.5533 224.039C59.4461 223.932 59.2175 223.802 58.8888 223.648L58.1743 223.328C57.1096 222.854 56.5737 222.221 56.5737 221.427C56.5737 220.866 56.7809 220.416 57.1953 220.076C57.6098 219.729 58.1314 219.556 58.7673 219.556C59.2603 219.556 59.6962 219.669 60.0677 219.896C60.4393 220.116 60.7323 220.42 60.9467 220.806L60.0249 221.517C59.6891 221.01 59.2675 220.756 58.7673 220.756C58.5244 220.756 58.3315 220.813 58.1743 220.926C58.0242 221.04 57.9456 221.197 57.9456 221.397C57.9456 221.563 57.9956 221.701 58.1027 221.807C58.2171 221.907 58.4244 222.024 58.7173 222.157L59.4675 222.487C60.032 222.741 60.4464 223.018 60.7037 223.318C60.9681 223.612 61.0967 223.978 61.0967 224.419C61.0967 225.013 60.8823 225.493 60.4465 225.86C60.0106 226.22 59.4604 226.4 58.7888 226.4C58.2314 226.4 57.7313 226.27 57.2882 226.01C56.8452 225.75 56.495 225.393 56.2378 224.939ZM62.39 226.28V219.676H66.8345V220.896H63.7405V222.237H66.0128V223.388H63.7405V225.059H66.9488V226.28H62.39ZM73.8013 226.28H72.2865L70.5715 223.948H69.5855V226.28H68.235V219.676H70.7144C71.4075 219.676 71.9792 219.872 72.4222 220.266C72.8723 220.66 73.0939 221.173 73.0939 221.807C73.0939 222.221 72.9938 222.594 72.7866 222.928C72.5865 223.254 72.3008 223.508 71.9363 223.688L73.8013 226.28ZM69.5855 220.866V222.758H70.7144C71.0288 222.758 71.2718 222.671 71.4433 222.497C71.6219 222.324 71.7148 222.094 71.7148 221.807C71.7148 221.527 71.6219 221.3 71.4361 221.127C71.2503 220.953 71.0145 220.866 70.7144 220.866H69.5855ZM75.9734 226.28V220.896H73.8656V219.676H79.4461V220.896H77.3239V226.28H75.9734ZM88.8781 219.556H89.3211V226.28H87.9706V222.758L86.3058 224.839H85.8699L84.205 222.758V226.28H82.8545V219.556H83.2975L86.0842 223.128L88.8781 219.556ZM90.9431 226.28V219.676H95.3876V220.896H92.2936V222.237H94.5658V223.388H92.2936V225.059H95.5091V226.28H90.9431ZM98.2743 226.28V220.896H96.1664V219.676H101.747V220.896H99.6248V226.28H98.2743ZM108.314 226.28H106.799L105.084 223.948H104.098V226.28H102.747V219.676H105.227C105.92 219.676 106.492 219.872 106.935 220.266C107.385 220.66 107.606 221.173 107.606 221.807C107.606 222.221 107.506 222.594 107.299 222.928C107.099 223.254 106.813 223.508 106.449 223.688L108.314 226.28ZM104.098 220.866V222.758H105.227C105.541 222.758 105.784 222.671 105.956 222.497C106.134 222.324 106.227 222.094 106.227 221.807C106.227 221.527 106.134 221.3 105.949 221.127C105.763 220.953 105.527 220.866 105.227 220.866H104.098ZM109.25 226.28V219.676H110.6V226.28H109.25ZM111.843 222.978C111.829 222.031 112.172 221.22 112.872 220.546C113.573 219.866 114.401 219.536 115.359 219.556C115.988 219.556 116.552 219.702 117.06 219.996C117.574 220.282 117.981 220.683 118.274 221.197L117.253 221.917C116.781 221.177 116.145 220.806 115.359 220.806C114.744 220.806 114.237 221.013 113.83 221.427C113.43 221.841 113.23 222.361 113.23 222.988C113.23 223.615 113.43 224.132 113.83 224.539C114.237 224.946 114.744 225.149 115.359 225.149C116.145 225.149 116.781 224.779 117.253 224.039L118.274 224.759C117.989 225.273 117.588 225.676 117.074 225.97C116.559 226.256 115.988 226.4 115.352 226.4C114.387 226.42 113.551 226.093 112.851 225.419C112.158 224.739 111.822 223.925 111.843 222.978Z" fill="#1B91F0"/>
<path d="M251.517 249.152H-0.00195312V249.867H251.517V249.152Z" fill="#E0E6EE"/>
<path d="M12.1895 270.594H13.5399V263.99H12.1895V270.594ZM19.6135 267.522C19.6135 266.321 18.8989 265.531 17.7485 265.531C17.1626 265.531 16.6482 265.741 16.2981 266.091V265.641H15.0618V270.594H16.4123V267.702C16.4123 267.132 16.7982 266.741 17.3484 266.741C17.8986 266.741 18.2701 267.132 18.2701 267.702V270.594H19.6135V267.522ZM20.5995 269.753C21.0497 270.354 21.7857 270.714 22.6503 270.714C23.2148 270.714 23.6721 270.574 24.0365 270.294C24.4009 270.014 24.5867 269.623 24.5867 269.133C24.5867 268.403 24.1508 268.012 23.1933 267.622L22.7146 267.422C22.3216 267.262 22.193 267.172 22.193 266.982C22.193 266.751 22.3931 266.631 22.7218 266.631C23.1362 266.631 23.5006 266.792 23.8364 267.102L24.5153 266.271C24.0651 265.781 23.472 265.531 22.736 265.531C21.6499 265.531 20.914 266.081 20.914 267.012C20.914 267.742 21.3499 268.152 22.2645 268.523L22.7932 268.743C23.1648 268.903 23.3005 268.983 23.3005 269.193C23.3005 269.463 23.0361 269.603 22.6717 269.603C22.1858 269.603 21.7143 269.383 21.2856 268.933L20.5995 269.753ZM30.3031 268.573C30.3602 268.323 30.3888 268.072 30.3888 267.832C30.3888 266.541 29.4313 265.531 28.0594 265.531C26.6303 265.501 25.437 266.691 25.4656 268.122C25.437 269.553 26.6517 270.744 28.1808 270.714C28.9096 270.714 29.567 270.464 30.1601 269.974L29.6028 269.053C29.167 269.383 28.7096 269.553 28.2166 269.553C27.502 269.553 26.9876 269.203 26.8304 268.573H30.3031ZM26.8304 267.622C26.9805 267.012 27.4377 266.621 28.0093 266.621C28.6024 266.621 29.0668 267.012 29.0811 267.622H26.8304ZM34.626 265.641C34.4974 265.601 34.3545 265.581 34.1901 265.581C33.6399 265.581 33.154 265.821 32.8253 266.231V265.641H31.5892V270.594H32.9397V268.122C32.9397 267.272 33.4541 266.832 34.2687 266.832H34.626V265.641ZM38.7918 269.463C38.4417 269.493 38.2273 269.503 38.1487 269.503C37.5056 269.503 37.2269 269.293 37.2269 268.733V266.782H38.6275V265.641H37.2269V264.39H35.8764V265.641H35.0976V266.782H35.8764V268.853C35.8764 270.094 36.6053 270.714 37.8557 270.714C38.1558 270.714 38.4703 270.674 38.7918 270.594V269.463ZM42.4859 269.253C43.0004 270.144 43.9222 270.714 45.0369 270.714C46.3588 270.714 47.352 269.944 47.352 268.733C47.352 267.842 46.8304 267.292 45.7228 266.802L44.9725 266.471C44.4081 266.221 44.2009 266.061 44.2009 265.711C44.2009 265.301 44.551 265.07 45.0226 265.07C45.5228 265.07 45.9372 265.321 46.2802 265.831L47.202 265.12C46.7876 264.36 46.0301 263.87 45.0226 263.87C43.7722 263.87 42.8289 264.61 42.8289 265.741C42.8289 266.621 43.4221 267.192 44.4296 267.642L45.137 267.962C45.7729 268.252 45.9801 268.393 45.9801 268.783C45.9801 269.233 45.63 269.513 45.0369 269.513C44.3224 269.513 43.8508 269.143 43.422 268.553L42.4859 269.253ZM53.1398 268.573C53.2041 268.323 53.2327 268.072 53.2327 267.832C53.2327 266.541 52.268 265.531 50.9033 265.531C49.467 265.501 48.2809 266.691 48.3095 268.122C48.2809 269.553 49.4885 270.744 51.0176 270.714C51.7536 270.714 52.411 270.464 53.0041 269.974L52.4396 269.053C52.0108 269.383 51.5535 269.553 51.0604 269.553C50.3388 269.553 49.8315 269.203 49.6671 268.573H53.1398ZM49.6671 267.622C49.8172 267.012 50.2817 266.621 50.8533 266.621C51.4392 266.621 51.9108 267.012 51.9179 267.622H49.6671ZM57.6128 269.463C57.2627 269.493 57.0483 269.503 56.9697 269.503C56.3266 269.503 56.0479 269.293 56.0479 268.733V266.782H57.4485V265.641H56.0479V264.39H54.6975V265.641H53.9186V266.782H54.6975V268.853C54.6975 270.094 55.4263 270.714 56.6767 270.714C56.9768 270.714 57.2913 270.674 57.6128 270.594V269.463ZM61.6142 269.463C61.2641 269.493 61.0497 269.503 60.9711 269.503C60.328 269.503 60.0494 269.293 60.0494 268.733V266.782H61.4499V265.641H60.0494V264.39H58.6989V265.641H57.9201V266.782H58.6989V268.853C58.6989 270.094 59.4278 270.714 60.6782 270.714C60.9783 270.714 61.2927 270.674 61.6142 270.594V269.463ZM62.7361 270.594H64.0865V265.641H62.7361V270.594ZM62.5432 263.84C62.5432 264.31 62.9219 264.67 63.4077 264.67C63.8865 264.67 64.2723 264.31 64.2723 263.84C64.2723 263.359 63.8865 262.999 63.4077 262.999C62.9219 262.999 62.5432 263.359 62.5432 263.84ZM70.1173 267.522C70.1173 266.321 69.4028 265.531 68.2524 265.531C67.6664 265.531 67.1519 265.741 66.8018 266.091V265.641H65.5657V270.594H66.9162V267.702C66.9162 267.132 67.302 266.741 67.8522 266.741C68.4024 266.741 68.774 267.132 68.774 267.702V270.594H70.1173V267.522ZM75.2906 265.641V266.261C74.9405 265.791 74.3831 265.531 73.6686 265.531C72.3181 265.531 71.2963 266.511 71.2963 267.982C71.2963 269.433 72.2966 270.444 73.6686 270.444C74.2974 270.444 74.819 270.244 75.1834 269.854V270.124C75.1834 270.894 74.6618 271.295 73.8615 271.295C73.2613 271.295 72.7968 271.064 72.2466 270.654L71.5392 271.595C72.2323 272.205 73.0398 272.515 73.9687 272.515C75.5192 272.515 76.5339 271.655 76.5339 270.044V265.641H75.2906ZM75.1977 267.962C75.1977 268.813 74.6332 269.303 73.9472 269.303C73.2327 269.303 72.6682 268.773 72.6682 267.972C72.6682 267.172 73.2184 266.681 73.9472 266.681C74.6403 266.681 75.1977 267.112 75.1977 267.962ZM77.5629 269.753C78.013 270.354 78.7419 270.714 79.6136 270.714C80.1709 270.714 80.6353 270.574 80.9926 270.294C81.3642 270.014 81.5428 269.623 81.5428 269.133C81.5428 268.403 81.1141 268.012 80.1566 267.622L79.6707 267.422C79.2849 267.262 79.1563 267.172 79.1563 266.982C79.1563 266.751 79.3563 266.631 79.685 266.631C80.0923 266.631 80.4638 266.792 80.7925 267.102L81.4714 266.271C81.0212 265.781 80.4353 265.531 79.6922 265.531C78.6132 265.531 77.8701 266.081 77.8701 267.012C77.8701 267.742 78.3131 268.152 79.2206 268.523L79.7565 268.743C80.1209 268.903 80.2638 268.983 80.2638 269.193C80.2638 269.463 79.9922 269.603 79.635 269.603C79.1419 269.603 78.6704 269.383 78.2416 268.933L77.5629 269.753Z" fill="#2C3039"/>
<path d="M125.756 309.907C130.492 309.907 134.331 306.067 134.331 301.33C134.331 296.593 130.492 292.753 125.756 292.753C121.021 292.753 117.182 296.593 117.182 301.33C117.182 306.067 121.021 309.907 125.756 309.907Z" fill="black" fill-opacity="0.12"/>
<path d="M122.81 299.36L122.182 299.989L125.754 303.563L129.327 299.989L128.698 299.36L125.754 302.299" fill="#5F6368"/>
<defs>
<filter id="filter0_d_1_1127" x="-10.2097" y="-6.7294" width="267.851" height="617.446" filterUnits="userSpaceOnUse" color-interpolation-filters="sRGB">
<feFlood flood-opacity="0" result="BackgroundImageFix"/>
<feColorMatrix in="SourceAlpha" type="matrix" values="0 0 0 0 0 0 0 0 0 0 0 0 0 0 0 0 0 0 127 0" result="hardAlpha"/>
<feOffset dx="-2.04155" dy="1.02077"/>
<feGaussianBlur stdDeviation="4.0831"/>
<feColorMatrix type="matrix" values="0 0 0 0 0 0 0 0 0 0 0 0 0 0 0 0 0 0 0.12 0"/>
<feBlend mode="normal" in2="BackgroundImageFix" result="effect1_dropShadow_1_1127"/>
<feBlend mode="normal" in="SourceGraphic" in2="effect1_dropShadow_1_1127" result="shape"/>
</filter>
<filter id="filter1_bdddddd_1_1127" x="-139.002" y="-6.58398" width="529.519" height="879.113" filterUnits="userSpaceOnUse" color-interpolation-filters="sRGB">
<feFlood flood-opacity="0" result="BackgroundImageFix"/>
<feGaussianBlur in="BackgroundImageFix" stdDeviation="1"/>
<feComposite in2="SourceAlpha" operator="in" result="effect1_backgroundBlur_1_1127"/>
<feColorMatrix in="SourceAlpha" type="matrix" values="0 0 0 0 0 0 0 0 0 0 0 0 0 0 0 0 0 0 127 0" result="hardAlpha"/>
<feOffset dy="132"/>
<feGaussianBlur stdDeviation="69.5"/>
<feComposite in2="hardAlpha" operator="out"/>
<feColorMatrix type="matrix" values="0 0 0 0 0.0313726 0 0 0 0 0.0823529 0 0 0 0 0.294118 0 0 0 0.04 0"/>
<feBlend mode="normal" in2="effect1_backgroundBlur_1_1127" result="effect2_dropShadow_1_1127"/>
<feColorMatrix in="SourceAlpha" type="matrix" values="0 0 0 0 0 0 0 0 0 0 0 0 0 0 0 0 0 0 127 0" result="hardAlpha"/>
<feOffset dy="55.1464"/>
<feGaussianBlur stdDeviation="29.0354"/>
<feComposite in2="hardAlpha" operator="out"/>
<feColorMatrix type="matrix" values="0 0 0 0 0.0313726 0 0 0 0 0.0823529 0 0 0 0 0.294118 0 0 0 0.027 0"/>
<feBlend mode="normal" in2="effect2_dropShadow_1_1127" result="effect3_dropShadow_1_1127"/>
<feColorMatrix in="SourceAlpha" type="matrix" values="0 0 0 0 0 0 0 0 0 0 0 0 0 0 0 0 0 0 127 0" result="hardAlpha"/>
<feOffset dy="29.4839"/>
<feGaussianBlur stdDeviation="15.5238"/>
<feComposite in2="hardAlpha" operator="out"/>
<feColorMatrix type="matrix" values="0 0 0 0 0.0313726 0 0 0 0 0.0823529 0 0 0 0 0.294118 0 0 0 0.024 0"/>
<feBlend mode="normal" in2="effect3_dropShadow_1_1127" result="effect4_dropShadow_1_1127"/>
<feColorMatrix in="SourceAlpha" type="matrix" values="0 0 0 0 0 0 0 0 0 0 0 0 0 0 0 0 0 0 127 0" result="hardAlpha"/>
<feOffset dy="16.5284"/>
<feGaussianBlur stdDeviation="8.7025"/>
<feComposite in2="hardAlpha" operator="out"/>
<feColorMatrix type="matrix" values="0 0 0 0 0.0313726 0 0 0 0 0.0823529 0 0 0 0 0.294118 0 0 0 0.02 0"/>
<feBlend mode="normal" in2="effect4_dropShadow_1_1127" result="effect5_dropShadow_1_1127"/>
<feColorMatrix in="SourceAlpha" type="matrix" values="0 0 0 0 0 0 0 0 0 0 0 0 0 0 0 0 0 0 127 0" result="hardAlpha"/>
<feOffset dy="8.77813"/>
<feGaussianBlur stdDeviation="4.62182"/>
<feComposite in2="hardAlpha" operator="out"/>
<feColorMatrix type="matrix" values="0 0 0 0 0.0313726 0 0 0 0 0.0823529 0 0 0 0 0.294118 0 0 0 0.016 0"/>
<feBlend mode="normal" in2="effect5_dropShadow_1_1127" result="effect6_dropShadow_1_1127"/>
<feColorMatrix in="SourceAlpha" type="matrix" values="0 0 0 0 0 0 0 0 0 0 0 0 0 0 0 0 0 0 127 0" result="hardAlpha"/>
<feOffset dy="3.65278"/>
<feGaussianBlur stdDeviation="1.92324"/>
<feComposite in2="hardAlpha" operator="out"/>
<feColorMatrix type="matrix" values="0 0 0 0 0.0313726 0 0 0 0 0.0823529 0 0 0 0 0.294118 0 0 0 0.01 0"/>
<feBlend mode="normal" in2="effect6_dropShadow_1_1127" result="effect7_dropShadow_1_1127"/>
<feBlend mode="normal" in="SourceGraphic" in2="effect7_dropShadow_1_1127" result="shape"/>
</filter>
<filter id="filter2_ddd_1_1127" x="-3.06427" y="-1.62553" width="257.643" height="53.2988" filterUnits="userSpaceOnUse" color-interpolation-filters="sRGB">
<feFlood flood-opacity="0" result="BackgroundImageFix"/>
<feColorMatrix in="SourceAlpha" type="matrix" values="0 0 0 0 0 0 0 0 0 0 0 0 0 0 0 0 0 0 127 0" result="hardAlpha"/>
<feOffset dy="1.02077"/>
<feGaussianBlur stdDeviation="1.53116"/>
<feColorMatrix type="matrix" values="0 0 0 0 0 0 0 0 0 0 0 0 0 0 0 0 0 0 0.2 0"/>
<feBlend mode="normal" in2="BackgroundImageFix" result="effect1_dropShadow_1_1127"/>
<feColorMatrix in="SourceAlpha" type="matrix" values="0 0 0 0 0 0 0 0 0 0 0 0 0 0 0 0 0 0 127 0" result="hardAlpha"/>
<feOffset dy="2.04155"/>
<feGaussianBlur stdDeviation="1.02077"/>
<feColorMatrix type="matrix" values="0 0 0 0 0 0 0 0 0 0 0 0 0 0 0 0 0 0 0.12 0"/>
<feBlend mode="normal" in2="effect1_dropShadow_1_1127" result="effect2_dropShadow_1_1127"/>
<feColorMatrix in="SourceAlpha" type="matrix" values="0 0 0 0 0 0 0 0 0 0 0 0 0 0 0 0 0 0 127 0" result="hardAlpha"/>
<feOffset/>
<feGaussianBlur stdDeviation="1.02077"/>
<feColorMatrix type="matrix" values="0 0 0 0 0 0 0 0 0 0 0 0 0 0 0 0 0 0 0.14 0"/>
<feBlend mode="normal" in2="effect2_dropShadow_1_1127" result="effect3_dropShadow_1_1127"/>
<feBlend mode="normal" in="SourceGraphic" in2="effect3_dropShadow_1_1127" result="shape"/>
</filter>
<filter id="filter3_ddd_1_1127" x="221.299" y="114.165" width="20.4154" height="20.4198" filterUnits="userSpaceOnUse" color-interpolation-filters="sRGB">
<feFlood flood-opacity="0" result="BackgroundImageFix"/>
<feColorMatrix in="SourceAlpha" type="matrix" values="0 0 0 0 0 0 0 0 0 0 0 0 0 0 0 0 0 0 127 0" result="hardAlpha"/>
<feOffset dy="1.02077"/>
<feGaussianBlur stdDeviation="1.53116"/>
<feColorMatrix type="matrix" values="0 0 0 0 0 0 0 0 0 0 0 0 0 0 0 0 0 0 0.2 0"/>
<feBlend mode="normal" in2="BackgroundImageFix" result="effect1_dropShadow_1_1127"/>
<feColorMatrix in="SourceAlpha" type="matrix" values="0 0 0 0 0 0 0 0 0 0 0 0 0 0 0 0 0 0 127 0" result="hardAlpha"/>
<feOffset dy="2.04155"/>
<feGaussianBlur stdDeviation="1.02077"/>
<feColorMatrix type="matrix" values="0 0 0 0 0 0 0 0 0 0 0 0 0 0 0 0 0 0 0.12 0"/>
<feBlend mode="normal" in2="effect1_dropShadow_1_1127" result="effect2_dropShadow_1_1127"/>
<feColorMatrix in="SourceAlpha" type="matrix" values="0 0 0 0 0 0 0 0 0 0 0 0 0 0 0 0 0 0 127 0" result="hardAlpha"/>
<feOffset/>
<feGaussianBlur stdDeviation="1.02077"/>
<feColorMatrix type="matrix" values="0 0 0 0 0 0 0 0 0 0 0 0 0 0 0 0 0 0 0.14 0"/>
<feBlend mode="normal" in2="effect2_dropShadow_1_1127" result="effect3_dropShadow_1_1127"/>
<feBlend mode="normal" in="SourceGraphic" in2="effect3_dropShadow_1_1127" result="shape"/>
</filter>
</defs>
</svg>
